<svg width="64" height="15" viewBox="0 0 64 15" fill="none" xmlns="http://www.w3.org/2000/svg">
<rect width="64" height="15" rx="5" fill="#8F8989"/>
<path d="M8.55469 5.38477L6.82129 11H4.98047L7.59277 3.89062H8.75977L8.55469 5.38477ZM9.99023 11L8.25195 5.38477L8.02734 3.89062H9.20898L11.8359 11H9.99023ZM9.92188 8.34863V9.67188H6.27441V8.34863H9.92188ZM13.9404 7.02539V11H12.2949V5.7168H13.833L13.9404 7.02539ZM15.5029 5.67773L15.4736 7.20605C15.4085 7.19954 15.3206 7.19141 15.21 7.18164C15.0993 7.17188 15.0065 7.16699 14.9316 7.16699C14.7396 7.16699 14.5736 7.18978 14.4336 7.23535C14.2969 7.27767 14.1829 7.34277 14.0918 7.43066C14.0039 7.5153 13.9388 7.62272 13.8965 7.75293C13.8574 7.88314 13.8395 8.03451 13.8428 8.20703L13.5449 8.01172C13.5449 7.6569 13.5791 7.33464 13.6475 7.04492C13.7191 6.75195 13.82 6.49967 13.9502 6.28809C14.0804 6.07324 14.2383 5.90885 14.4238 5.79492C14.6094 5.67773 14.8177 5.61914 15.0488 5.61914C15.1302 5.61914 15.21 5.62402 15.2881 5.63379C15.3695 5.64355 15.4411 5.6582 15.5029 5.67773ZM19.0967 5.7168V6.85938H15.9131V5.7168H19.0967ZM16.582 4.40332H18.2275V9.27637C18.2275 9.41634 18.2438 9.52539 18.2764 9.60352C18.3089 9.67839 18.3643 9.7321 18.4424 9.76465C18.5238 9.79395 18.6312 9.80859 18.7646 9.80859C18.859 9.80859 18.9372 9.80697 18.999 9.80371C19.0609 9.7972 19.1195 9.78906 19.1748 9.7793V10.9561C19.0348 11.0016 18.8883 11.0358 18.7354 11.0586C18.5824 11.0846 18.4196 11.0977 18.2471 11.0977C17.8955 11.0977 17.5944 11.0423 17.3438 10.9316C17.0964 10.821 16.9076 10.6468 16.7773 10.4092C16.6471 10.1715 16.582 9.8623 16.582 9.48145V4.40332ZM21.3623 3.5V11H19.7168V3.5H21.3623ZM21.167 8.17773L20.7812 8.1875C20.7812 7.81641 20.8268 7.47461 20.918 7.16211C21.0091 6.84961 21.1393 6.5778 21.3086 6.34668C21.4779 6.11556 21.6813 5.93652 21.9189 5.80957C22.1566 5.68262 22.4202 5.61914 22.71 5.61914C22.9704 5.61914 23.208 5.65658 23.4229 5.73145C23.641 5.80632 23.8281 5.92676 23.9844 6.09277C24.1439 6.25879 24.266 6.47526 24.3506 6.74219C24.4385 7.00911 24.4824 7.33464 24.4824 7.71875V11H22.8271V7.70898C22.8271 7.49414 22.7962 7.32812 22.7344 7.21094C22.6758 7.09049 22.5911 7.00749 22.4805 6.96191C22.3698 6.91309 22.2347 6.88867 22.0752 6.88867C21.8831 6.88867 21.7269 6.92122 21.6064 6.98633C21.486 7.05143 21.3932 7.14258 21.3281 7.25977C21.2663 7.3737 21.224 7.50879 21.2012 7.66504C21.1784 7.82129 21.167 7.99219 21.167 8.17773ZM27.9541 11.0977C27.5244 11.0977 27.1403 11.0309 26.8018 10.8975C26.4632 10.7607 26.1768 10.5736 25.9424 10.3359C25.7113 10.0983 25.5339 9.82487 25.4102 9.51562C25.2897 9.20638 25.2295 8.87923 25.2295 8.53418V8.34863C25.2295 7.96126 25.2832 7.60319 25.3906 7.27441C25.498 6.94238 25.6576 6.65267 25.8691 6.40527C26.0807 6.15788 26.346 5.96582 26.665 5.8291C26.984 5.68913 27.3551 5.61914 27.7783 5.61914C28.1527 5.61914 28.488 5.67936 28.7842 5.7998C29.0804 5.92025 29.3311 6.09277 29.5361 6.31738C29.7445 6.54199 29.9023 6.8138 30.0098 7.13281C30.1204 7.45182 30.1758 7.8099 30.1758 8.20703V8.87598H25.8594V7.8457H28.5693V7.71875C28.5726 7.54297 28.5417 7.39323 28.4766 7.26953C28.4147 7.14583 28.3236 7.05143 28.2031 6.98633C28.0827 6.92122 27.9362 6.88867 27.7637 6.88867C27.5846 6.88867 27.4365 6.92773 27.3193 7.00586C27.2054 7.08398 27.1159 7.19141 27.0508 7.32812C26.9889 7.46159 26.945 7.61621 26.9189 7.79199C26.8929 7.96777 26.8799 8.15332 26.8799 8.34863V8.53418C26.8799 8.72949 26.9059 8.9069 26.958 9.06641C27.0133 9.22591 27.0915 9.36263 27.1924 9.47656C27.2965 9.58724 27.4202 9.6735 27.5635 9.73535C27.71 9.7972 27.876 9.82812 28.0615 9.82812C28.2861 9.82812 28.5075 9.78581 28.7256 9.70117C28.9437 9.61654 29.1309 9.47656 29.2871 9.28125L30.0342 10.1699C29.9268 10.3229 29.7738 10.471 29.5752 10.6143C29.3799 10.7575 29.1455 10.8747 28.8721 10.9658C28.5986 11.0537 28.2926 11.0977 27.9541 11.0977ZM32.5049 6.83496V11H30.8594V5.7168H32.4023L32.5049 6.83496ZM32.3047 8.17773L31.9287 8.1875C31.9287 7.81641 31.9727 7.47461 32.0605 7.16211C32.1484 6.84961 32.2786 6.5778 32.4512 6.34668C32.6237 6.11556 32.8353 5.93652 33.0859 5.80957C33.3398 5.68262 33.6328 5.61914 33.9648 5.61914C34.196 5.61914 34.4059 5.65495 34.5947 5.72656C34.7835 5.79492 34.9463 5.90397 35.083 6.05371C35.2197 6.2002 35.3239 6.39225 35.3955 6.62988C35.4704 6.86426 35.5078 7.14583 35.5078 7.47461V11H33.8623V7.68457C33.8623 7.45996 33.8363 7.29069 33.7842 7.17676C33.7354 7.06283 33.6637 6.98633 33.5693 6.94727C33.4749 6.9082 33.3594 6.88867 33.2227 6.88867C33.0794 6.88867 32.9508 6.92122 32.8369 6.98633C32.723 7.05143 32.6253 7.14258 32.5439 7.25977C32.4658 7.3737 32.4056 7.50879 32.3633 7.66504C32.3242 7.82129 32.3047 7.99219 32.3047 8.17773ZM35.3223 8.17773L34.8633 8.1875C34.8633 7.81641 34.904 7.47461 34.9854 7.16211C35.07 6.84961 35.1953 6.5778 35.3613 6.34668C35.5306 6.11556 35.7406 5.93652 35.9912 5.80957C36.2419 5.68262 36.5332 5.61914 36.8652 5.61914C37.1061 5.61914 37.3275 5.65495 37.5293 5.72656C37.7311 5.79818 37.9053 5.91374 38.0518 6.07324C38.1982 6.23275 38.3122 6.44434 38.3936 6.70801C38.4749 6.96842 38.5156 7.29069 38.5156 7.6748V11H36.8652V7.6748C36.8652 7.45671 36.8392 7.29232 36.7871 7.18164C36.7383 7.06771 36.6667 6.99121 36.5723 6.95215C36.4779 6.90983 36.3656 6.88867 36.2354 6.88867C36.0791 6.88867 35.944 6.92122 35.8301 6.98633C35.7161 7.05143 35.6201 7.14258 35.542 7.25977C35.4671 7.3737 35.4118 7.50879 35.376 7.66504C35.3402 7.82129 35.3223 7.99219 35.3223 8.17773ZM42.0166 11.0977C41.5869 11.0977 41.2028 11.0309 40.8643 10.8975C40.5257 10.7607 40.2393 10.5736 40.0049 10.3359C39.7738 10.0983 39.5964 9.82487 39.4727 9.51562C39.3522 9.20638 39.292 8.87923 39.292 8.53418V8.34863C39.292 7.96126 39.3457 7.60319 39.4531 7.27441C39.5605 6.94238 39.7201 6.65267 39.9316 6.40527C40.1432 6.15788 40.4085 5.96582 40.7275 5.8291C41.0465 5.68913 41.4176 5.61914 41.8408 5.61914C42.2152 5.61914 42.5505 5.67936 42.8467 5.7998C43.1429 5.92025 43.3936 6.09277 43.5986 6.31738C43.807 6.54199 43.9648 6.8138 44.0723 7.13281C44.1829 7.45182 44.2383 7.8099 44.2383 8.20703V8.87598H39.9219V7.8457H42.6318V7.71875C42.6351 7.54297 42.6042 7.39323 42.5391 7.26953C42.4772 7.14583 42.3861 7.05143 42.2656 6.98633C42.1452 6.92122 41.9987 6.88867 41.8262 6.88867C41.6471 6.88867 41.499 6.92773 41.3818 7.00586C41.2679 7.08398 41.1784 7.19141 41.1133 7.32812C41.0514 7.46159 41.0075 7.61621 40.9814 7.79199C40.9554 7.96777 40.9424 8.15332 40.9424 8.34863V8.53418C40.9424 8.72949 40.9684 8.9069 41.0205 9.06641C41.0758 9.22591 41.154 9.36263 41.2549 9.47656C41.359 9.58724 41.4827 9.6735 41.626 9.73535C41.7725 9.7972 41.9385 9.82812 42.124 9.82812C42.3486 9.82812 42.57 9.78581 42.7881 9.70117C43.0062 9.61654 43.1934 9.47656 43.3496 9.28125L44.0967 10.1699C43.9893 10.3229 43.8363 10.471 43.6377 10.6143C43.4424 10.7575 43.208 10.8747 42.9346 10.9658C42.6611 11.0537 42.3551 11.0977 42.0166 11.0977ZM47.6904 5.7168V6.85938H44.5068V5.7168H47.6904ZM45.1758 4.40332H46.8213V9.27637C46.8213 9.41634 46.8376 9.52539 46.8701 9.60352C46.9027 9.67839 46.958 9.7321 47.0361 9.76465C47.1175 9.79395 47.2249 9.80859 47.3584 9.80859C47.4528 9.80859 47.5309 9.80697 47.5928 9.80371C47.6546 9.7972 47.7132 9.78906 47.7686 9.7793V10.9561C47.6286 11.0016 47.4821 11.0358 47.3291 11.0586C47.1761 11.0846 47.0133 11.0977 46.8408 11.0977C46.4893 11.0977 46.1882 11.0423 45.9375 10.9316C45.6901 10.821 45.5013 10.6468 45.3711 10.4092C45.2409 10.1715 45.1758 9.8623 45.1758 9.48145V4.40332ZM50.9033 11.0977C50.4736 11.0977 50.0895 11.0309 49.751 10.8975C49.4124 10.7607 49.126 10.5736 48.8916 10.3359C48.6605 10.0983 48.4831 9.82487 48.3594 9.51562C48.2389 9.20638 48.1787 8.87923 48.1787 8.53418V8.34863C48.1787 7.96126 48.2324 7.60319 48.3398 7.27441C48.4473 6.94238 48.6068 6.65267 48.8184 6.40527C49.0299 6.15788 49.2952 5.96582 49.6143 5.8291C49.9333 5.68913 50.3044 5.61914 50.7275 5.61914C51.1019 5.61914 51.4372 5.67936 51.7334 5.7998C52.0296 5.92025 52.2803 6.09277 52.4854 6.31738C52.6937 6.54199 52.8516 6.8138 52.959 7.13281C53.0697 7.45182 53.125 7.8099 53.125 8.20703V8.87598H48.8086V7.8457H51.5186V7.71875C51.5218 7.54297 51.4909 7.39323 51.4258 7.26953C51.3639 7.14583 51.2728 7.05143 51.1523 6.98633C51.0319 6.92122 50.8854 6.88867 50.7129 6.88867C50.5339 6.88867 50.3857 6.92773 50.2686 7.00586C50.1546 7.08398 50.0651 7.19141 50 7.32812C49.9382 7.46159 49.8942 7.61621 49.8682 7.79199C49.8421 7.96777 49.8291 8.15332 49.8291 8.34863V8.53418C49.8291 8.72949 49.8551 8.9069 49.9072 9.06641C49.9626 9.22591 50.0407 9.36263 50.1416 9.47656C50.2458 9.58724 50.3695 9.6735 50.5127 9.73535C50.6592 9.7972 50.8252 9.82812 51.0107 9.82812C51.2354 9.82812 51.4567 9.78581 51.6748 9.70117C51.8929 9.61654 52.0801 9.47656 52.2363 9.28125L52.9834 10.1699C52.876 10.3229 52.723 10.471 52.5244 10.6143C52.3291 10.7575 52.0947 10.8747 51.8213 10.9658C51.5479 11.0537 51.2419 11.0977 50.9033 11.0977ZM55.4541 7.02539V11H53.8086V5.7168H55.3467L55.4541 7.02539ZM57.0166 5.67773L56.9873 7.20605C56.9222 7.19954 56.8343 7.19141 56.7236 7.18164C56.613 7.17188 56.5202 7.16699 56.4453 7.16699C56.2533 7.16699 56.0872 7.18978 55.9473 7.23535C55.8105 7.27767 55.6966 7.34277 55.6055 7.43066C55.5176 7.5153 55.4525 7.62272 55.4102 7.75293C55.3711 7.88314 55.3532 8.03451 55.3564 8.20703L55.0586 8.01172C55.0586 7.6569 55.0928 7.33464 55.1611 7.04492C55.2327 6.75195 55.3337 6.49967 55.4639 6.28809C55.5941 6.07324 55.752 5.90885 55.9375 5.79492C56.123 5.67773 56.3314 5.61914 56.5625 5.61914C56.6439 5.61914 56.7236 5.62402 56.8018 5.63379C56.8831 5.64355 56.9548 5.6582 57.0166 5.67773Z" fill="white"/>
</svg>
