<svg width="15" height="18" viewBox="0 0 15 18" fill="none" xmlns="http://www.w3.org/2000/svg">
<g clip-path="url(#clip0_1_73)">
<path d="M6.37835 2.23996L7.12165 1.49665C7.43638 1.18192 7.94531 1.18192 8.2567 1.49665L14.7656 8.00224C15.0804 8.31697 15.0804 8.8259 14.7656 9.13728L8.2567 15.6462C7.94196 15.9609 7.43304 15.9609 7.12165 15.6462L6.37835 14.9029C6.06027 14.5848 6.06696 14.0659 6.39174 13.7545L10.4263 9.91072H0.803571C0.358259 9.91072 0 9.55246 0 9.10715V8.03572C0 7.59041 0.358259 7.23215 0.803571 7.23215H10.4263L6.39174 3.3884C6.06362 3.07701 6.05692 2.55804 6.37835 2.23996Z" fill="#E5E5E5"/>
</g>
<defs>
<clipPath id="clip0_1_73">
<rect width="15" height="17.1429" fill="white"/>
</clipPath>
</defs>
</svg>
