<svg width="59" height="18" viewBox="0 0 59 18" fill="none" xmlns="http://www.w3.org/2000/svg">
<rect x="0.5" y="0.5" width="54" height="17" fill="#A22B2B" stroke="#AA2F2F"/>
<path d="M9.70703 9.16992H11.459C11.4238 9.74414 11.2656 10.2539 10.9844 10.6992C10.707 11.1445 10.3184 11.4922 9.81836 11.7422C9.32227 11.9922 8.72461 12.1172 8.02539 12.1172C7.47852 12.1172 6.98828 12.0234 6.55469 11.8359C6.12109 11.6445 5.75 11.3711 5.44141 11.0156C5.13672 10.6602 4.9043 10.2305 4.74414 9.72656C4.58398 9.22266 4.50391 8.6582 4.50391 8.0332V7.44141C4.50391 6.81641 4.58594 6.25195 4.75 5.74805C4.91797 5.24023 5.15625 4.80859 5.46484 4.45312C5.77734 4.09766 6.15039 3.82422 6.58398 3.63281C7.01758 3.44141 7.50195 3.3457 8.03711 3.3457C8.74805 3.3457 9.34766 3.47461 9.83594 3.73242C10.3281 3.99023 10.709 4.3457 10.9785 4.79883C11.252 5.25195 11.416 5.76758 11.4707 6.3457H9.71289C9.69336 6.00195 9.625 5.71094 9.50781 5.47266C9.39062 5.23047 9.21289 5.04883 8.97461 4.92773C8.74023 4.80273 8.42773 4.74023 8.03711 4.74023C7.74414 4.74023 7.48828 4.79492 7.26953 4.9043C7.05078 5.01367 6.86719 5.17969 6.71875 5.40234C6.57031 5.625 6.45898 5.90625 6.38477 6.24609C6.31445 6.58203 6.2793 6.97656 6.2793 7.42969V8.0332C6.2793 8.47461 6.3125 8.86328 6.37891 9.19922C6.44531 9.53125 6.54688 9.8125 6.68359 10.043C6.82422 10.2695 7.00391 10.4414 7.22266 10.5586C7.44531 10.6719 7.71289 10.7285 8.02539 10.7285C8.39258 10.7285 8.69531 10.6699 8.93359 10.5527C9.17188 10.4355 9.35352 10.2617 9.47852 10.0312C9.60742 9.80078 9.68359 9.51367 9.70703 9.16992ZM14.1543 3V12H12.4668V3H14.1543ZM13.9141 8.60742H13.4512C13.4551 8.16602 13.5137 7.75977 13.627 7.38867C13.7402 7.01367 13.9023 6.68945 14.1133 6.41602C14.3242 6.13867 14.5762 5.92383 14.8691 5.77148C15.166 5.61914 15.4941 5.54297 15.8535 5.54297C16.166 5.54297 16.4492 5.58789 16.7031 5.67773C16.9609 5.76367 17.1816 5.9043 17.3652 6.09961C17.5527 6.29102 17.6973 6.54297 17.7988 6.85547C17.9004 7.16797 17.9512 7.54688 17.9512 7.99219V12H16.252V7.98047C16.252 7.69922 16.2109 7.47852 16.1289 7.31836C16.0508 7.1543 15.9355 7.03906 15.7832 6.97266C15.6348 6.90234 15.4512 6.86719 15.2324 6.86719C14.9902 6.86719 14.7832 6.91211 14.6113 7.00195C14.4434 7.0918 14.3086 7.2168 14.207 7.37695C14.1055 7.5332 14.0312 7.7168 13.9844 7.92773C13.9375 8.13867 13.9141 8.36523 13.9141 8.60742ZM22.6562 10.5703V7.74609C22.6562 7.54297 22.623 7.36914 22.5566 7.22461C22.4902 7.07617 22.3867 6.96094 22.2461 6.87891C22.1094 6.79688 21.9316 6.75586 21.7129 6.75586C21.5254 6.75586 21.3633 6.78906 21.2266 6.85547C21.0898 6.91797 20.9844 7.00977 20.9102 7.13086C20.8359 7.24805 20.7988 7.38672 20.7988 7.54688H19.1113C19.1113 7.27734 19.1738 7.02148 19.2988 6.7793C19.4238 6.53711 19.6055 6.32422 19.8438 6.14062C20.082 5.95312 20.3652 5.80664 20.6934 5.70117C21.0254 5.5957 21.3965 5.54297 21.8066 5.54297C22.2988 5.54297 22.7363 5.625 23.1191 5.78906C23.502 5.95312 23.8027 6.19922 24.0215 6.52734C24.2441 6.85547 24.3555 7.26562 24.3555 7.75781V10.4707C24.3555 10.8184 24.377 11.1035 24.4199 11.3262C24.4629 11.5449 24.5254 11.7363 24.6074 11.9004V12H22.9023C22.8203 11.8281 22.7578 11.6133 22.7148 11.3555C22.6758 11.0938 22.6562 10.832 22.6562 10.5703ZM22.8789 8.13867L22.8906 9.09375H21.9473C21.7246 9.09375 21.5312 9.11914 21.3672 9.16992C21.2031 9.2207 21.0684 9.29297 20.9629 9.38672C20.8574 9.47656 20.7793 9.58203 20.7285 9.70312C20.6816 9.82422 20.6582 9.95703 20.6582 10.1016C20.6582 10.2461 20.6914 10.377 20.7578 10.4941C20.8242 10.6074 20.9199 10.6973 21.0449 10.7637C21.1699 10.8262 21.3164 10.8574 21.4844 10.8574C21.7383 10.8574 21.959 10.8066 22.1465 10.7051C22.334 10.6035 22.4785 10.4785 22.5801 10.3301C22.6855 10.1816 22.7402 10.041 22.7441 9.9082L23.1895 10.623C23.127 10.7832 23.041 10.9492 22.9316 11.1211C22.8262 11.293 22.6914 11.4551 22.5273 11.6074C22.3633 11.7559 22.166 11.8789 21.9355 11.9766C21.7051 12.0703 21.4316 12.1172 21.1152 12.1172C20.7129 12.1172 20.3477 12.0371 20.0195 11.877C19.6953 11.7129 19.4375 11.4883 19.2461 11.2031C19.0586 10.9141 18.9648 10.5859 18.9648 10.2188C18.9648 9.88672 19.0273 9.5918 19.1523 9.33398C19.2773 9.07617 19.4609 8.85938 19.7031 8.68359C19.9492 8.50391 20.2559 8.36914 20.623 8.2793C20.9902 8.18555 21.416 8.13867 21.9004 8.13867H22.8789ZM27.3438 7.04297V12H25.6562V5.66016H27.2441L27.3438 7.04297ZM29.2539 5.61914L29.2246 7.18359C29.1426 7.17188 29.043 7.16211 28.9258 7.1543C28.8125 7.14258 28.709 7.13672 28.6152 7.13672C28.377 7.13672 28.1699 7.16797 27.9941 7.23047C27.8223 7.28906 27.6777 7.37695 27.5605 7.49414C27.4473 7.61133 27.3613 7.75391 27.3027 7.92188C27.248 8.08984 27.2168 8.28125 27.209 8.49609L26.8691 8.39062C26.8691 7.98047 26.9102 7.60352 26.9922 7.25977C27.0742 6.91211 27.1934 6.60938 27.3496 6.35156C27.5098 6.09375 27.7051 5.89453 27.9355 5.75391C28.166 5.61328 28.4297 5.54297 28.7266 5.54297C28.8203 5.54297 28.916 5.55078 29.0137 5.56641C29.1113 5.57812 29.1914 5.5957 29.2539 5.61914ZM33.9473 5.66016H35.4766V11.7891C35.4766 12.3672 35.3477 12.8574 35.0898 13.2598C34.8359 13.666 34.4805 13.9727 34.0234 14.1797C33.5664 14.3906 33.0352 14.4961 32.4297 14.4961C32.1641 14.4961 31.8828 14.4609 31.5859 14.3906C31.293 14.3203 31.0117 14.2109 30.7422 14.0625C30.4766 13.9141 30.2539 13.7266 30.0742 13.5L30.8184 12.5039C31.0137 12.7305 31.2402 12.9062 31.498 13.0312C31.7559 13.1602 32.041 13.2246 32.3535 13.2246C32.6582 13.2246 32.916 13.168 33.127 13.0547C33.3379 12.9453 33.5 12.7832 33.6133 12.5684C33.7266 12.3574 33.7832 12.1016 33.7832 11.8008V7.125L33.9473 5.66016ZM29.6816 8.90625V8.7832C29.6816 8.29883 29.7402 7.85938 29.8574 7.46484C29.9785 7.06641 30.1484 6.72461 30.3672 6.43945C30.5898 6.1543 30.8594 5.93359 31.1758 5.77734C31.4922 5.62109 31.8496 5.54297 32.248 5.54297C32.6699 5.54297 33.0234 5.62109 33.3086 5.77734C33.5938 5.93359 33.8281 6.15625 34.0117 6.44531C34.1953 6.73047 34.3379 7.06836 34.4395 7.45898C34.5449 7.8457 34.627 8.26953 34.6855 8.73047V9C34.627 9.44141 34.5391 9.85156 34.4219 10.2305C34.3047 10.6094 34.1504 10.9414 33.959 11.2266C33.7676 11.5078 33.5293 11.7266 33.2441 11.8828C32.9629 12.0391 32.627 12.1172 32.2363 12.1172C31.8457 12.1172 31.4922 12.0371 31.1758 11.877C30.8633 11.7168 30.5957 11.4922 30.373 11.2031C30.1504 10.9141 29.9785 10.5742 29.8574 10.1836C29.7402 9.79297 29.6816 9.36719 29.6816 8.90625ZM31.3691 8.7832V8.90625C31.3691 9.16797 31.3945 9.41211 31.4453 9.63867C31.4961 9.86523 31.5742 10.0664 31.6797 10.2422C31.7891 10.4141 31.9238 10.5488 32.084 10.6465C32.248 10.7402 32.4414 10.7871 32.6641 10.7871C32.9727 10.7871 33.2246 10.7227 33.4199 10.5938C33.6152 10.4609 33.7617 10.2793 33.8594 10.0488C33.957 9.81836 34.0137 9.55273 34.0293 9.25195V8.48438C34.0215 8.23828 33.9883 8.01758 33.9297 7.82227C33.8711 7.62305 33.7891 7.45312 33.6836 7.3125C33.5781 7.17188 33.4414 7.0625 33.2734 6.98438C33.1055 6.90625 32.9062 6.86719 32.6758 6.86719C32.4531 6.86719 32.2598 6.91797 32.0957 7.01953C31.9355 7.11719 31.8008 7.25195 31.6914 7.42383C31.5859 7.5957 31.5059 7.79883 31.4512 8.0332C31.3965 8.26367 31.3691 8.51367 31.3691 8.7832ZM39.707 12.1172C39.2148 12.1172 38.7734 12.0391 38.3828 11.8828C37.9922 11.7227 37.6602 11.502 37.3867 11.2207C37.1172 10.9395 36.9102 10.6133 36.7656 10.2422C36.6211 9.86719 36.5488 9.46875 36.5488 9.04688V8.8125C36.5488 8.33203 36.6172 7.89258 36.7539 7.49414C36.8906 7.0957 37.0859 6.75 37.3398 6.45703C37.5977 6.16406 37.9102 5.93945 38.2773 5.7832C38.6445 5.62305 39.0586 5.54297 39.5195 5.54297C39.9688 5.54297 40.3672 5.61719 40.7148 5.76562C41.0625 5.91406 41.3535 6.125 41.5879 6.39844C41.8262 6.67188 42.0059 7 42.127 7.38281C42.248 7.76172 42.3086 8.18359 42.3086 8.64844V9.35156H37.2695V8.22656H40.6504V8.09766C40.6504 7.86328 40.6074 7.6543 40.5215 7.4707C40.4395 7.2832 40.3145 7.13477 40.1465 7.02539C39.9785 6.91602 39.7637 6.86133 39.502 6.86133C39.2793 6.86133 39.0879 6.91016 38.9277 7.00781C38.7676 7.10547 38.6367 7.24219 38.5352 7.41797C38.4375 7.59375 38.3633 7.80078 38.3125 8.03906C38.2656 8.27344 38.2422 8.53125 38.2422 8.8125V9.04688C38.2422 9.30078 38.2773 9.53516 38.3477 9.75C38.4219 9.96484 38.5254 10.1504 38.6582 10.3066C38.7949 10.4629 38.959 10.584 39.1504 10.6699C39.3457 10.7559 39.5664 10.7988 39.8125 10.7988C40.1172 10.7988 40.4004 10.7402 40.6621 10.623C40.9277 10.502 41.1562 10.3203 41.3477 10.0781L42.168 10.9688C42.0352 11.1602 41.8535 11.3438 41.623 11.5195C41.3965 11.6953 41.123 11.8398 40.8027 11.9531C40.4824 12.0625 40.1172 12.1172 39.707 12.1172ZM46.6973 10.248C46.6973 10.127 46.6621 10.0176 46.5918 9.91992C46.5215 9.82227 46.3906 9.73242 46.1992 9.65039C46.0117 9.56445 45.7402 9.48633 45.3848 9.41602C45.0645 9.3457 44.7656 9.25781 44.4883 9.15234C44.2148 9.04297 43.9766 8.91211 43.7734 8.75977C43.5742 8.60742 43.418 8.42773 43.3047 8.2207C43.1914 8.00977 43.1348 7.76953 43.1348 7.5C43.1348 7.23438 43.1914 6.98438 43.3047 6.75C43.4219 6.51562 43.5879 6.30859 43.8027 6.12891C44.0215 5.94531 44.2871 5.80273 44.5996 5.70117C44.916 5.5957 45.2715 5.54297 45.666 5.54297C46.2168 5.54297 46.6895 5.63086 47.084 5.80664C47.4824 5.98242 47.7871 6.22461 47.998 6.5332C48.2129 6.83789 48.3203 7.18555 48.3203 7.57617H46.6328C46.6328 7.41211 46.5977 7.26562 46.5273 7.13672C46.4609 7.00391 46.3555 6.90039 46.2109 6.82617C46.0703 6.74805 45.8867 6.70898 45.6602 6.70898C45.4727 6.70898 45.3105 6.74219 45.1738 6.80859C45.0371 6.87109 44.9316 6.95703 44.8574 7.06641C44.7871 7.17188 44.752 7.28906 44.752 7.41797C44.752 7.51562 44.7715 7.60352 44.8105 7.68164C44.8535 7.75586 44.9219 7.82422 45.0156 7.88672C45.1094 7.94922 45.2305 8.00781 45.3789 8.0625C45.5312 8.11328 45.7188 8.16016 45.9414 8.20312C46.3984 8.29688 46.8066 8.41992 47.166 8.57227C47.5254 8.7207 47.8105 8.92383 48.0215 9.18164C48.2324 9.43555 48.3379 9.76953 48.3379 10.1836C48.3379 10.4648 48.2754 10.7227 48.1504 10.957C48.0254 11.1914 47.8457 11.3965 47.6113 11.5723C47.377 11.7441 47.0957 11.8789 46.7676 11.9766C46.4434 12.0703 46.0781 12.1172 45.6719 12.1172C45.082 12.1172 44.582 12.0117 44.1719 11.8008C43.7656 11.5898 43.457 11.3223 43.2461 10.998C43.0391 10.6699 42.9355 10.334 42.9355 9.99023H44.5352C44.543 10.2207 44.6016 10.4062 44.7109 10.5469C44.8242 10.6875 44.9668 10.7891 45.1387 10.8516C45.3145 10.9141 45.5039 10.9453 45.707 10.9453C45.9258 10.9453 46.1074 10.916 46.252 10.8574C46.3965 10.7949 46.5059 10.7129 46.5801 10.6113C46.6582 10.5059 46.6973 10.3848 46.6973 10.248Z" fill="white"/>
</svg>
