<svg width="73" height="18" viewBox="0 0 73 18" fill="none" xmlns="http://www.w3.org/2000/svg">
<rect x="0.5" y="0.5" width="68" height="17" fill="#A22B2B" stroke="#AA2F2F"/>
<path d="M11.3809 13H9.52344L9.53516 11.6289H11.3809C11.8418 11.6289 12.2305 11.5254 12.5469 11.3184C12.8633 11.1074 13.1016 10.8008 13.2617 10.3984C13.4258 9.99609 13.5078 9.50977 13.5078 8.93945V8.52344C13.5078 8.08594 13.4609 7.70117 13.3672 7.36914C13.2773 7.03711 13.1426 6.75781 12.9629 6.53125C12.7832 6.30469 12.5625 6.13477 12.3008 6.02148C12.0391 5.9043 11.7383 5.8457 11.3984 5.8457H9.48828V4.46875H11.3984C11.9688 4.46875 12.4902 4.56641 12.9629 4.76172C13.4395 4.95312 13.8516 5.22852 14.1992 5.58789C14.5469 5.94727 14.8145 6.37695 15.002 6.87695C15.1934 7.37305 15.2891 7.92578 15.2891 8.53516V8.93945C15.2891 9.54492 15.1934 10.0977 15.002 10.5977C14.8145 11.0977 14.5469 11.5273 14.1992 11.8867C13.8555 12.2422 13.4434 12.5176 12.9629 12.7129C12.4863 12.9043 11.959 13 11.3809 13ZM10.5195 4.46875V13H8.76172V4.46875H10.5195ZM18.2422 6.66016V13H16.5488V6.66016H18.2422ZM16.4434 5.00781C16.4434 4.76172 16.5293 4.55859 16.7012 4.39844C16.873 4.23828 17.1035 4.1582 17.3926 4.1582C17.6777 4.1582 17.9062 4.23828 18.0781 4.39844C18.2539 4.55859 18.3418 4.76172 18.3418 5.00781C18.3418 5.25391 18.2539 5.45703 18.0781 5.61719C17.9062 5.77734 17.6777 5.85742 17.3926 5.85742C17.1035 5.85742 16.873 5.77734 16.7012 5.61719C16.5293 5.45703 16.4434 5.25391 16.4434 5.00781ZM23.0586 11.5703V8.74609C23.0586 8.54297 23.0254 8.36914 22.959 8.22461C22.8926 8.07617 22.7891 7.96094 22.6484 7.87891C22.5117 7.79688 22.334 7.75586 22.1152 7.75586C21.9277 7.75586 21.7656 7.78906 21.6289 7.85547C21.4922 7.91797 21.3867 8.00977 21.3125 8.13086C21.2383 8.24805 21.2012 8.38672 21.2012 8.54688H19.5137C19.5137 8.27734 19.5762 8.02148 19.7012 7.7793C19.8262 7.53711 20.0078 7.32422 20.2461 7.14062C20.4844 6.95312 20.7676 6.80664 21.0957 6.70117C21.4277 6.5957 21.7988 6.54297 22.209 6.54297C22.7012 6.54297 23.1387 6.625 23.5215 6.78906C23.9043 6.95312 24.2051 7.19922 24.4238 7.52734C24.6465 7.85547 24.7578 8.26562 24.7578 8.75781V11.4707C24.7578 11.8184 24.7793 12.1035 24.8223 12.3262C24.8652 12.5449 24.9277 12.7363 25.0098 12.9004V13H23.3047C23.2227 12.8281 23.1602 12.6133 23.1172 12.3555C23.0781 12.0938 23.0586 11.832 23.0586 11.5703ZM23.2812 9.13867L23.293 10.0938H22.3496C22.127 10.0938 21.9336 10.1191 21.7695 10.1699C21.6055 10.2207 21.4707 10.293 21.3652 10.3867C21.2598 10.4766 21.1816 10.582 21.1309 10.7031C21.084 10.8242 21.0605 10.957 21.0605 11.1016C21.0605 11.2461 21.0938 11.377 21.1602 11.4941C21.2266 11.6074 21.3223 11.6973 21.4473 11.7637C21.5723 11.8262 21.7188 11.8574 21.8867 11.8574C22.1406 11.8574 22.3613 11.8066 22.5488 11.7051C22.7363 11.6035 22.8809 11.4785 22.9824 11.3301C23.0879 11.1816 23.1426 11.041 23.1465 10.9082L23.5918 11.623C23.5293 11.7832 23.4434 11.9492 23.334 12.1211C23.2285 12.293 23.0938 12.4551 22.9297 12.6074C22.7656 12.7559 22.5684 12.8789 22.3379 12.9766C22.1074 13.0703 21.834 13.1172 21.5176 13.1172C21.1152 13.1172 20.75 13.0371 20.4219 12.877C20.0977 12.7129 19.8398 12.4883 19.6484 12.2031C19.4609 11.9141 19.3672 11.5859 19.3672 11.2188C19.3672 10.8867 19.4297 10.5918 19.5547 10.334C19.6797 10.0762 19.8633 9.85938 20.1055 9.68359C20.3516 9.50391 20.6582 9.36914 21.0254 9.2793C21.3926 9.18555 21.8184 9.13867 22.3027 9.13867H23.2812ZM30.0723 6.66016H31.6016V12.7891C31.6016 13.3672 31.4727 13.8574 31.2148 14.2598C30.9609 14.666 30.6055 14.9727 30.1484 15.1797C29.6914 15.3906 29.1602 15.4961 28.5547 15.4961C28.2891 15.4961 28.0078 15.4609 27.7109 15.3906C27.418 15.3203 27.1367 15.2109 26.8672 15.0625C26.6016 14.9141 26.3789 14.7266 26.1992 14.5L26.9434 13.5039C27.1387 13.7305 27.3652 13.9062 27.623 14.0312C27.8809 14.1602 28.166 14.2246 28.4785 14.2246C28.7832 14.2246 29.041 14.168 29.252 14.0547C29.4629 13.9453 29.625 13.7832 29.7383 13.5684C29.8516 13.3574 29.9082 13.1016 29.9082 12.8008V8.125L30.0723 6.66016ZM25.8066 9.90625V9.7832C25.8066 9.29883 25.8652 8.85938 25.9824 8.46484C26.1035 8.06641 26.2734 7.72461 26.4922 7.43945C26.7148 7.1543 26.9844 6.93359 27.3008 6.77734C27.6172 6.62109 27.9746 6.54297 28.373 6.54297C28.7949 6.54297 29.1484 6.62109 29.4336 6.77734C29.7188 6.93359 29.9531 7.15625 30.1367 7.44531C30.3203 7.73047 30.4629 8.06836 30.5645 8.45898C30.6699 8.8457 30.752 9.26953 30.8105 9.73047V10C30.752 10.4414 30.6641 10.8516 30.5469 11.2305C30.4297 11.6094 30.2754 11.9414 30.084 12.2266C29.8926 12.5078 29.6543 12.7266 29.3691 12.8828C29.0879 13.0391 28.752 13.1172 28.3613 13.1172C27.9707 13.1172 27.6172 13.0371 27.3008 12.877C26.9883 12.7168 26.7207 12.4922 26.498 12.2031C26.2754 11.9141 26.1035 11.5742 25.9824 11.1836C25.8652 10.793 25.8066 10.3672 25.8066 9.90625ZM27.4941 9.7832V9.90625C27.4941 10.168 27.5195 10.4121 27.5703 10.6387C27.6211 10.8652 27.6992 11.0664 27.8047 11.2422C27.9141 11.4141 28.0488 11.5488 28.209 11.6465C28.373 11.7402 28.5664 11.7871 28.7891 11.7871C29.0977 11.7871 29.3496 11.7227 29.5449 11.5938C29.7402 11.4609 29.8867 11.2793 29.9844 11.0488C30.082 10.8184 30.1387 10.5527 30.1543 10.252V9.48438C30.1465 9.23828 30.1133 9.01758 30.0547 8.82227C29.9961 8.62305 29.9141 8.45312 29.8086 8.3125C29.7031 8.17188 29.5664 8.0625 29.3984 7.98438C29.2305 7.90625 29.0312 7.86719 28.8008 7.86719C28.5781 7.86719 28.3848 7.91797 28.2207 8.01953C28.0605 8.11719 27.9258 8.25195 27.8164 8.42383C27.7109 8.5957 27.6309 8.79883 27.5762 9.0332C27.5215 9.26367 27.4941 9.51367 27.4941 9.7832ZM34.5664 8.01367V13H32.8789V6.66016H34.4609L34.5664 8.01367ZM34.3203 9.60742H33.8633C33.8633 9.13867 33.9238 8.7168 34.0449 8.3418C34.166 7.96289 34.3359 7.64062 34.5547 7.375C34.7734 7.10547 35.0332 6.90039 35.334 6.75977C35.6387 6.61523 35.9785 6.54297 36.3535 6.54297C36.6504 6.54297 36.9219 6.58594 37.168 6.67188C37.4141 6.75781 37.625 6.89453 37.8008 7.08203C37.9805 7.26953 38.1172 7.51758 38.2109 7.82617C38.3086 8.13477 38.3574 8.51172 38.3574 8.95703V13H36.6582V8.95117C36.6582 8.66992 36.6191 8.45117 36.541 8.29492C36.4629 8.13867 36.3477 8.0293 36.1953 7.9668C36.0469 7.90039 35.8633 7.86719 35.6445 7.86719C35.418 7.86719 35.2207 7.91211 35.0527 8.00195C34.8887 8.0918 34.752 8.2168 34.6426 8.37695C34.5371 8.5332 34.457 8.7168 34.4023 8.92773C34.3477 9.13867 34.3203 9.36523 34.3203 9.60742ZM39.3711 9.89453V9.77148C39.3711 9.30664 39.4375 8.87891 39.5703 8.48828C39.7031 8.09375 39.8965 7.75195 40.1504 7.46289C40.4043 7.17383 40.7168 6.94922 41.0879 6.78906C41.459 6.625 41.8848 6.54297 42.3652 6.54297C42.8457 6.54297 43.2734 6.625 43.6484 6.78906C44.0234 6.94922 44.3379 7.17383 44.5918 7.46289C44.8496 7.75195 45.0449 8.09375 45.1777 8.48828C45.3105 8.87891 45.377 9.30664 45.377 9.77148V9.89453C45.377 10.3555 45.3105 10.7832 45.1777 11.1777C45.0449 11.5684 44.8496 11.9102 44.5918 12.2031C44.3379 12.4922 44.0254 12.7168 43.6543 12.877C43.2832 13.0371 42.8574 13.1172 42.377 13.1172C41.8965 13.1172 41.4688 13.0371 41.0938 12.877C40.7227 12.7168 40.4082 12.4922 40.1504 12.2031C39.8965 11.9102 39.7031 11.5684 39.5703 11.1777C39.4375 10.7832 39.3711 10.3555 39.3711 9.89453ZM41.0586 9.77148V9.89453C41.0586 10.1602 41.082 10.4082 41.1289 10.6387C41.1758 10.8691 41.25 11.0723 41.3516 11.248C41.457 11.4199 41.5938 11.5547 41.7617 11.6523C41.9297 11.75 42.1348 11.7988 42.377 11.7988C42.6113 11.7988 42.8125 11.75 42.9805 11.6523C43.1484 11.5547 43.2832 11.4199 43.3848 11.248C43.4863 11.0723 43.5605 10.8691 43.6074 10.6387C43.6582 10.4082 43.6836 10.1602 43.6836 9.89453V9.77148C43.6836 9.51367 43.6582 9.27148 43.6074 9.04492C43.5605 8.81445 43.4844 8.61133 43.3789 8.43555C43.2773 8.25586 43.1426 8.11523 42.9746 8.01367C42.8066 7.91211 42.6035 7.86133 42.3652 7.86133C42.127 7.86133 41.9238 7.91211 41.7559 8.01367C41.5918 8.11523 41.457 8.25586 41.3516 8.43555C41.25 8.61133 41.1758 8.81445 41.1289 9.04492C41.082 9.27148 41.0586 9.51367 41.0586 9.77148ZM49.8418 11.248C49.8418 11.127 49.8066 11.0176 49.7363 10.9199C49.666 10.8223 49.5352 10.7324 49.3438 10.6504C49.1562 10.5645 48.8848 10.4863 48.5293 10.416C48.209 10.3457 47.9102 10.2578 47.6328 10.1523C47.3594 10.043 47.1211 9.91211 46.918 9.75977C46.7188 9.60742 46.5625 9.42773 46.4492 9.2207C46.3359 9.00977 46.2793 8.76953 46.2793 8.5C46.2793 8.23438 46.3359 7.98438 46.4492 7.75C46.5664 7.51562 46.7324 7.30859 46.9473 7.12891C47.166 6.94531 47.4316 6.80273 47.7441 6.70117C48.0605 6.5957 48.416 6.54297 48.8105 6.54297C49.3613 6.54297 49.834 6.63086 50.2285 6.80664C50.627 6.98242 50.9316 7.22461 51.1426 7.5332C51.3574 7.83789 51.4648 8.18555 51.4648 8.57617H49.7773C49.7773 8.41211 49.7422 8.26562 49.6719 8.13672C49.6055 8.00391 49.5 7.90039 49.3555 7.82617C49.2148 7.74805 49.0312 7.70898 48.8047 7.70898C48.6172 7.70898 48.4551 7.74219 48.3184 7.80859C48.1816 7.87109 48.0762 7.95703 48.002 8.06641C47.9316 8.17188 47.8965 8.28906 47.8965 8.41797C47.8965 8.51562 47.916 8.60352 47.9551 8.68164C47.998 8.75586 48.0664 8.82422 48.1602 8.88672C48.2539 8.94922 48.375 9.00781 48.5234 9.0625C48.6758 9.11328 48.8633 9.16016 49.0859 9.20312C49.543 9.29688 49.9512 9.41992 50.3105 9.57227C50.6699 9.7207 50.9551 9.92383 51.166 10.1816C51.377 10.4355 51.4824 10.7695 51.4824 11.1836C51.4824 11.4648 51.4199 11.7227 51.2949 11.957C51.1699 12.1914 50.9902 12.3965 50.7559 12.5723C50.5215 12.7441 50.2402 12.8789 49.9121 12.9766C49.5879 13.0703 49.2227 13.1172 48.8164 13.1172C48.2266 13.1172 47.7266 13.0117 47.3164 12.8008C46.9102 12.5898 46.6016 12.3223 46.3906 11.998C46.1836 11.6699 46.0801 11.334 46.0801 10.9902H47.6797C47.6875 11.2207 47.7461 11.4062 47.8555 11.5469C47.9688 11.6875 48.1113 11.7891 48.2832 11.8516C48.459 11.9141 48.6484 11.9453 48.8516 11.9453C49.0703 11.9453 49.252 11.916 49.3965 11.8574C49.541 11.7949 49.6504 11.7129 49.7246 11.6113C49.8027 11.5059 49.8418 11.3848 49.8418 11.248ZM54.3594 6.66016V13H52.666V6.66016H54.3594ZM52.5605 5.00781C52.5605 4.76172 52.6465 4.55859 52.8184 4.39844C52.9902 4.23828 53.2207 4.1582 53.5098 4.1582C53.7949 4.1582 54.0234 4.23828 54.1953 4.39844C54.3711 4.55859 54.459 4.76172 54.459 5.00781C54.459 5.25391 54.3711 5.45703 54.1953 5.61719C54.0234 5.77734 53.7949 5.85742 53.5098 5.85742C53.2207 5.85742 52.9902 5.77734 52.8184 5.61719C52.6465 5.45703 52.5605 5.25391 52.5605 5.00781ZM59.1816 11.248C59.1816 11.127 59.1465 11.0176 59.0762 10.9199C59.0059 10.8223 58.875 10.7324 58.6836 10.6504C58.4961 10.5645 58.2246 10.4863 57.8691 10.416C57.5488 10.3457 57.25 10.2578 56.9727 10.1523C56.6992 10.043 56.4609 9.91211 56.2578 9.75977C56.0586 9.60742 55.9023 9.42773 55.7891 9.2207C55.6758 9.00977 55.6191 8.76953 55.6191 8.5C55.6191 8.23438 55.6758 7.98438 55.7891 7.75C55.9062 7.51562 56.0723 7.30859 56.2871 7.12891C56.5059 6.94531 56.7715 6.80273 57.084 6.70117C57.4004 6.5957 57.7559 6.54297 58.1504 6.54297C58.7012 6.54297 59.1738 6.63086 59.5684 6.80664C59.9668 6.98242 60.2715 7.22461 60.4824 7.5332C60.6973 7.83789 60.8047 8.18555 60.8047 8.57617H59.1172C59.1172 8.41211 59.082 8.26562 59.0117 8.13672C58.9453 8.00391 58.8398 7.90039 58.6953 7.82617C58.5547 7.74805 58.3711 7.70898 58.1445 7.70898C57.957 7.70898 57.7949 7.74219 57.6582 7.80859C57.5215 7.87109 57.416 7.95703 57.3418 8.06641C57.2715 8.17188 57.2363 8.28906 57.2363 8.41797C57.2363 8.51562 57.2559 8.60352 57.2949 8.68164C57.3379 8.75586 57.4062 8.82422 57.5 8.88672C57.5938 8.94922 57.7148 9.00781 57.8633 9.0625C58.0156 9.11328 58.2031 9.16016 58.4258 9.20312C58.8828 9.29688 59.291 9.41992 59.6504 9.57227C60.0098 9.7207 60.2949 9.92383 60.5059 10.1816C60.7168 10.4355 60.8223 10.7695 60.8223 11.1836C60.8223 11.4648 60.7598 11.7227 60.6348 11.957C60.5098 12.1914 60.3301 12.3965 60.0957 12.5723C59.8613 12.7441 59.5801 12.8789 59.252 12.9766C58.9277 13.0703 58.5625 13.1172 58.1562 13.1172C57.5664 13.1172 57.0664 13.0117 56.6562 12.8008C56.25 12.5898 55.9414 12.3223 55.7305 11.998C55.5234 11.6699 55.4199 11.334 55.4199 10.9902H57.0195C57.0273 11.2207 57.0859 11.4062 57.1953 11.5469C57.3086 11.6875 57.4512 11.7891 57.623 11.8516C57.7988 11.9141 57.9883 11.9453 58.1914 11.9453C58.4102 11.9453 58.5918 11.916 58.7363 11.8574C58.8809 11.7949 58.9902 11.7129 59.0645 11.6113C59.1426 11.5059 59.1816 11.3848 59.1816 11.248Z" fill="white"/>
</svg>
