<svg width="83" height="18" viewBox="0 0 83 18" fill="none" xmlns="http://www.w3.org/2000/svg">
<rect x="0.5" y="0.5" width="82" height="17" fill="#A22B2B" stroke="#AA2F2F"/>
<path d="M2.56445 3.46875H4.05273L6.24414 9.73242L8.43555 3.46875H9.92383L6.8418 12H5.64648L2.56445 3.46875ZM1.76172 3.46875H3.24414L3.51367 9.57422V12H1.76172V3.46875ZM9.24414 3.46875H10.7324V12H8.97461V9.57422L9.24414 3.46875ZM15.0859 12.1172C14.5938 12.1172 14.1523 12.0391 13.7617 11.8828C13.3711 11.7227 13.0391 11.502 12.7656 11.2207C12.4961 10.9395 12.2891 10.6133 12.1445 10.2422C12 9.86719 11.9277 9.46875 11.9277 9.04688V8.8125C11.9277 8.33203 11.9961 7.89258 12.1328 7.49414C12.2695 7.0957 12.4648 6.75 12.7188 6.45703C12.9766 6.16406 13.2891 5.93945 13.6562 5.7832C14.0234 5.62305 14.4375 5.54297 14.8984 5.54297C15.3477 5.54297 15.7461 5.61719 16.0938 5.76562C16.4414 5.91406 16.7324 6.125 16.9668 6.39844C17.2051 6.67188 17.3848 7 17.5059 7.38281C17.627 7.76172 17.6875 8.18359 17.6875 8.64844V9.35156H12.6484V8.22656H16.0293V8.09766C16.0293 7.86328 15.9863 7.6543 15.9004 7.4707C15.8184 7.2832 15.6934 7.13477 15.5254 7.02539C15.3574 6.91602 15.1426 6.86133 14.8809 6.86133C14.6582 6.86133 14.4668 6.91016 14.3066 7.00781C14.1465 7.10547 14.0156 7.24219 13.9141 7.41797C13.8164 7.59375 13.7422 7.80078 13.6914 8.03906C13.6445 8.27344 13.6211 8.53125 13.6211 8.8125V9.04688C13.6211 9.30078 13.6562 9.53516 13.7266 9.75C13.8008 9.96484 13.9043 10.1504 14.0371 10.3066C14.1738 10.4629 14.3379 10.584 14.5293 10.6699C14.7246 10.7559 14.9453 10.7988 15.1914 10.7988C15.4961 10.7988 15.7793 10.7402 16.041 10.623C16.3066 10.502 16.5352 10.3203 16.7266 10.0781L17.5469 10.9688C17.4141 11.1602 17.2324 11.3438 17.002 11.5195C16.7754 11.6953 16.502 11.8398 16.1816 11.9531C15.8613 12.0625 15.4961 12.1172 15.0859 12.1172ZM22.3926 10.6172V3H24.0918V12H22.5625L22.3926 10.6172ZM18.3848 8.90625V8.7832C18.3848 8.29883 18.4395 7.85938 18.5488 7.46484C18.6582 7.06641 18.8184 6.72461 19.0293 6.43945C19.2402 6.1543 19.5 5.93359 19.8086 5.77734C20.1172 5.62109 20.4688 5.54297 20.8633 5.54297C21.2344 5.54297 21.5586 5.62109 21.8359 5.77734C22.1172 5.93359 22.3555 6.15625 22.5508 6.44531C22.75 6.73047 22.9102 7.06836 23.0312 7.45898C23.1523 7.8457 23.2402 8.26953 23.2949 8.73047V9C23.2402 9.44141 23.1523 9.85156 23.0312 10.2305C22.9102 10.6094 22.75 10.9414 22.5508 11.2266C22.3555 11.5078 22.1172 11.7266 21.8359 11.8828C21.5547 12.0391 21.2266 12.1172 20.8516 12.1172C20.457 12.1172 20.1055 12.0371 19.7969 11.877C19.4922 11.7168 19.2344 11.4922 19.0234 11.2031C18.8164 10.9141 18.6582 10.5742 18.5488 10.1836C18.4395 9.79297 18.3848 9.36719 18.3848 8.90625ZM20.0723 8.7832V8.90625C20.0723 9.16797 20.0918 9.41211 20.1309 9.63867C20.1738 9.86523 20.2422 10.0664 20.3359 10.2422C20.4336 10.4141 20.5586 10.5488 20.7109 10.6465C20.8672 10.7402 21.0566 10.7871 21.2793 10.7871C21.5684 10.7871 21.8066 10.7227 21.9941 10.5938C22.1816 10.4609 22.3242 10.2793 22.4219 10.0488C22.5234 9.81836 22.582 9.55273 22.5977 9.25195V8.48438C22.5859 8.23828 22.5508 8.01758 22.4922 7.82227C22.4375 7.62305 22.3555 7.45312 22.2461 7.3125C22.1406 7.17188 22.0078 7.0625 21.8477 6.98438C21.6914 6.90625 21.5059 6.86719 21.291 6.86719C21.0723 6.86719 20.8848 6.91797 20.7285 7.01953C20.5723 7.11719 20.4453 7.25195 20.3477 7.42383C20.2539 7.5957 20.1836 7.79883 20.1367 8.0332C20.0938 8.26367 20.0723 8.51367 20.0723 8.7832ZM27.1914 5.66016V12H25.498V5.66016H27.1914ZM25.3926 4.00781C25.3926 3.76172 25.4785 3.55859 25.6504 3.39844C25.8223 3.23828 26.0527 3.1582 26.3418 3.1582C26.627 3.1582 26.8555 3.23828 27.0273 3.39844C27.2031 3.55859 27.291 3.76172 27.291 4.00781C27.291 4.25391 27.2031 4.45703 27.0273 4.61719C26.8555 4.77734 26.627 4.85742 26.3418 4.85742C26.0527 4.85742 25.8223 4.77734 25.6504 4.61719C25.4785 4.45703 25.3926 4.25391 25.3926 4.00781ZM31.2051 10.7988C31.4121 10.7988 31.5957 10.7598 31.7559 10.6816C31.916 10.5996 32.041 10.4863 32.1309 10.3418C32.2246 10.1934 32.2734 10.0195 32.2773 9.82031H33.8652C33.8613 10.2656 33.7422 10.6621 33.5078 11.0098C33.2734 11.3535 32.959 11.625 32.5645 11.8242C32.1699 12.0195 31.7285 12.1172 31.2402 12.1172C30.748 12.1172 30.3184 12.0352 29.9512 11.8711C29.5879 11.707 29.2852 11.4805 29.043 11.1914C28.8008 10.8984 28.6191 10.5586 28.498 10.1719C28.377 9.78125 28.3164 9.36328 28.3164 8.91797V8.74805C28.3164 8.29883 28.377 7.88086 28.498 7.49414C28.6191 7.10352 28.8008 6.76367 29.043 6.47461C29.2852 6.18164 29.5879 5.95312 29.9512 5.78906C30.3145 5.625 30.7402 5.54297 31.2285 5.54297C31.748 5.54297 32.2031 5.64258 32.5938 5.8418C32.9883 6.04102 33.2969 6.32617 33.5195 6.69727C33.7461 7.06445 33.8613 7.5 33.8652 8.00391H32.2773C32.2734 7.79297 32.2285 7.60156 32.1426 7.42969C32.0605 7.25781 31.9395 7.12109 31.7793 7.01953C31.623 6.91406 31.4297 6.86133 31.1992 6.86133C30.9531 6.86133 30.752 6.91406 30.5957 7.01953C30.4395 7.12109 30.3184 7.26172 30.2324 7.44141C30.1465 7.61719 30.0859 7.81836 30.0508 8.04492C30.0195 8.26758 30.0039 8.50195 30.0039 8.74805V8.91797C30.0039 9.16406 30.0195 9.40039 30.0508 9.62695C30.082 9.85352 30.1406 10.0547 30.2266 10.2305C30.3164 10.4062 30.4395 10.5449 30.5957 10.6465C30.752 10.748 30.9551 10.7988 31.2051 10.7988ZM38.2656 10.5703V7.74609C38.2656 7.54297 38.2324 7.36914 38.166 7.22461C38.0996 7.07617 37.9961 6.96094 37.8555 6.87891C37.7188 6.79688 37.541 6.75586 37.3223 6.75586C37.1348 6.75586 36.9727 6.78906 36.8359 6.85547C36.6992 6.91797 36.5938 7.00977 36.5195 7.13086C36.4453 7.24805 36.4082 7.38672 36.4082 7.54688H34.7207C34.7207 7.27734 34.7832 7.02148 34.9082 6.7793C35.0332 6.53711 35.2148 6.32422 35.4531 6.14062C35.6914 5.95312 35.9746 5.80664 36.3027 5.70117C36.6348 5.5957 37.0059 5.54297 37.416 5.54297C37.9082 5.54297 38.3457 5.625 38.7285 5.78906C39.1113 5.95312 39.4121 6.19922 39.6309 6.52734C39.8535 6.85547 39.9648 7.26562 39.9648 7.75781V10.4707C39.9648 10.8184 39.9863 11.1035 40.0293 11.3262C40.0723 11.5449 40.1348 11.7363 40.2168 11.9004V12H38.5117C38.4297 11.8281 38.3672 11.6133 38.3242 11.3555C38.2852 11.0938 38.2656 10.832 38.2656 10.5703ZM38.4883 8.13867L38.5 9.09375H37.5566C37.334 9.09375 37.1406 9.11914 36.9766 9.16992C36.8125 9.2207 36.6777 9.29297 36.5723 9.38672C36.4668 9.47656 36.3887 9.58203 36.3379 9.70312C36.291 9.82422 36.2676 9.95703 36.2676 10.1016C36.2676 10.2461 36.3008 10.377 36.3672 10.4941C36.4336 10.6074 36.5293 10.6973 36.6543 10.7637C36.7793 10.8262 36.9258 10.8574 37.0938 10.8574C37.3477 10.8574 37.5684 10.8066 37.7559 10.7051C37.9434 10.6035 38.0879 10.4785 38.1895 10.3301C38.2949 10.1816 38.3496 10.041 38.3535 9.9082L38.7988 10.623C38.7363 10.7832 38.6504 10.9492 38.541 11.1211C38.4355 11.293 38.3008 11.4551 38.1367 11.6074C37.9727 11.7559 37.7754 11.8789 37.5449 11.9766C37.3145 12.0703 37.041 12.1172 36.7246 12.1172C36.3223 12.1172 35.957 12.0371 35.6289 11.877C35.3047 11.7129 35.0469 11.4883 34.8555 11.2031C34.668 10.9141 34.5742 10.5859 34.5742 10.2188C34.5742 9.88672 34.6367 9.5918 34.7617 9.33398C34.8867 9.07617 35.0703 8.85938 35.3125 8.68359C35.5586 8.50391 35.8652 8.36914 36.2324 8.2793C36.5996 8.18555 37.0254 8.13867 37.5098 8.13867H38.4883ZM44.3711 5.66016V6.85547H40.6797V5.66016H44.3711ZM41.5938 4.0957H43.2812V10.0898C43.2812 10.2734 43.3047 10.4141 43.3516 10.5117C43.4023 10.6094 43.4766 10.6777 43.5742 10.7168C43.6719 10.752 43.7949 10.7695 43.9434 10.7695C44.0488 10.7695 44.1426 10.7656 44.2246 10.7578C44.3105 10.7461 44.3828 10.7344 44.4414 10.7227L44.4473 11.9648C44.3027 12.0117 44.1465 12.0488 43.9785 12.0762C43.8105 12.1035 43.625 12.1172 43.4219 12.1172C43.0508 12.1172 42.7266 12.0566 42.4492 11.9355C42.1758 11.8105 41.9648 11.6113 41.8164 11.3379C41.668 11.0645 41.5938 10.7051 41.5938 10.2598V4.0957ZM47.1133 5.66016V12H45.4199V5.66016H47.1133ZM45.3145 4.00781C45.3145 3.76172 45.4004 3.55859 45.5723 3.39844C45.7441 3.23828 45.9746 3.1582 46.2637 3.1582C46.5488 3.1582 46.7773 3.23828 46.9492 3.39844C47.125 3.55859 47.2129 3.76172 47.2129 4.00781C47.2129 4.25391 47.125 4.45703 46.9492 4.61719C46.7773 4.77734 46.5488 4.85742 46.2637 4.85742C45.9746 4.85742 45.7441 4.77734 45.5723 4.61719C45.4004 4.45703 45.3145 4.25391 45.3145 4.00781ZM48.2383 8.89453V8.77148C48.2383 8.30664 48.3047 7.87891 48.4375 7.48828C48.5703 7.09375 48.7637 6.75195 49.0176 6.46289C49.2715 6.17383 49.584 5.94922 49.9551 5.78906C50.3262 5.625 50.752 5.54297 51.2324 5.54297C51.7129 5.54297 52.1406 5.625 52.5156 5.78906C52.8906 5.94922 53.2051 6.17383 53.459 6.46289C53.7168 6.75195 53.9121 7.09375 54.0449 7.48828C54.1777 7.87891 54.2441 8.30664 54.2441 8.77148V8.89453C54.2441 9.35547 54.1777 9.7832 54.0449 10.1777C53.9121 10.5684 53.7168 10.9102 53.459 11.2031C53.2051 11.4922 52.8926 11.7168 52.5215 11.877C52.1504 12.0371 51.7246 12.1172 51.2441 12.1172C50.7637 12.1172 50.3359 12.0371 49.9609 11.877C49.5898 11.7168 49.2754 11.4922 49.0176 11.2031C48.7637 10.9102 48.5703 10.5684 48.4375 10.1777C48.3047 9.7832 48.2383 9.35547 48.2383 8.89453ZM49.9258 8.77148V8.89453C49.9258 9.16016 49.9492 9.4082 49.9961 9.63867C50.043 9.86914 50.1172 10.0723 50.2188 10.248C50.3242 10.4199 50.4609 10.5547 50.6289 10.6523C50.7969 10.75 51.002 10.7988 51.2441 10.7988C51.4785 10.7988 51.6797 10.75 51.8477 10.6523C52.0156 10.5547 52.1504 10.4199 52.252 10.248C52.3535 10.0723 52.4277 9.86914 52.4746 9.63867C52.5254 9.4082 52.5508 9.16016 52.5508 8.89453V8.77148C52.5508 8.51367 52.5254 8.27148 52.4746 8.04492C52.4277 7.81445 52.3516 7.61133 52.2461 7.43555C52.1445 7.25586 52.0098 7.11523 51.8418 7.01367C51.6738 6.91211 51.4707 6.86133 51.2324 6.86133C50.9941 6.86133 50.791 6.91211 50.623 7.01367C50.459 7.11523 50.3242 7.25586 50.2188 7.43555C50.1172 7.61133 50.043 7.81445 49.9961 8.04492C49.9492 8.27148 49.9258 8.51367 49.9258 8.77148ZM56.9336 7.01367V12H55.2461V5.66016H56.8281L56.9336 7.01367ZM56.6875 8.60742H56.2305C56.2305 8.13867 56.291 7.7168 56.4121 7.3418C56.5332 6.96289 56.7031 6.64062 56.9219 6.375C57.1406 6.10547 57.4004 5.90039 57.7012 5.75977C58.0059 5.61523 58.3457 5.54297 58.7207 5.54297C59.0176 5.54297 59.2891 5.58594 59.5352 5.67188C59.7812 5.75781 59.9922 5.89453 60.168 6.08203C60.3477 6.26953 60.4844 6.51758 60.5781 6.82617C60.6758 7.13477 60.7246 7.51172 60.7246 7.95703V12H59.0254V7.95117C59.0254 7.66992 58.9863 7.45117 58.9082 7.29492C58.8301 7.13867 58.7148 7.0293 58.5625 6.9668C58.4141 6.90039 58.2305 6.86719 58.0117 6.86719C57.7852 6.86719 57.5879 6.91211 57.4199 7.00195C57.2559 7.0918 57.1191 7.2168 57.0098 7.37695C56.9043 7.5332 56.8242 7.7168 56.7695 7.92773C56.7148 8.13867 56.6875 8.36523 56.6875 8.60742ZM65.4355 10.248C65.4355 10.127 65.4004 10.0176 65.3301 9.91992C65.2598 9.82227 65.1289 9.73242 64.9375 9.65039C64.75 9.56445 64.4785 9.48633 64.123 9.41602C63.8027 9.3457 63.5039 9.25781 63.2266 9.15234C62.9531 9.04297 62.7148 8.91211 62.5117 8.75977C62.3125 8.60742 62.1562 8.42773 62.043 8.2207C61.9297 8.00977 61.873 7.76953 61.873 7.5C61.873 7.23438 61.9297 6.98438 62.043 6.75C62.1602 6.51562 62.3262 6.30859 62.541 6.12891C62.7598 5.94531 63.0254 5.80273 63.3379 5.70117C63.6543 5.5957 64.0098 5.54297 64.4043 5.54297C64.9551 5.54297 65.4277 5.63086 65.8223 5.80664C66.2207 5.98242 66.5254 6.22461 66.7363 6.5332C66.9512 6.83789 67.0586 7.18555 67.0586 7.57617H65.3711C65.3711 7.41211 65.3359 7.26562 65.2656 7.13672C65.1992 7.00391 65.0938 6.90039 64.9492 6.82617C64.8086 6.74805 64.625 6.70898 64.3984 6.70898C64.2109 6.70898 64.0488 6.74219 63.9121 6.80859C63.7754 6.87109 63.6699 6.95703 63.5957 7.06641C63.5254 7.17188 63.4902 7.28906 63.4902 7.41797C63.4902 7.51562 63.5098 7.60352 63.5488 7.68164C63.5918 7.75586 63.6602 7.82422 63.7539 7.88672C63.8477 7.94922 63.9688 8.00781 64.1172 8.0625C64.2695 8.11328 64.457 8.16016 64.6797 8.20312C65.1367 8.29688 65.5449 8.41992 65.9043 8.57227C66.2637 8.7207 66.5488 8.92383 66.7598 9.18164C66.9707 9.43555 67.0762 9.76953 67.0762 10.1836C67.0762 10.4648 67.0137 10.7227 66.8887 10.957C66.7637 11.1914 66.584 11.3965 66.3496 11.5723C66.1152 11.7441 65.834 11.8789 65.5059 11.9766C65.1816 12.0703 64.8164 12.1172 64.4102 12.1172C63.8203 12.1172 63.3203 12.0117 62.9102 11.8008C62.5039 11.5898 62.1953 11.3223 61.9844 10.998C61.7773 10.6699 61.6738 10.334 61.6738 9.99023H63.2734C63.2812 10.2207 63.3398 10.4062 63.4492 10.5469C63.5625 10.6875 63.7051 10.7891 63.877 10.8516C64.0527 10.9141 64.2422 10.9453 64.4453 10.9453C64.6641 10.9453 64.8457 10.916 64.9902 10.8574C65.1348 10.7949 65.2441 10.7129 65.3184 10.6113C65.3965 10.5059 65.4355 10.3848 65.4355 10.248Z" fill="white"/>
</svg>
