<svg width="71" height="18" viewBox="0 0 71 18" fill="none" xmlns="http://www.w3.org/2000/svg">
<rect x="0.5" y="0.5" width="65" height="17" fill="#A22B2B" stroke="#AA2F2F"/>
<path d="M10.084 9.95898H7.91016V8.58789H10.084C10.4199 8.58789 10.6934 8.5332 10.9043 8.42383C11.1152 8.31055 11.2695 8.1543 11.3672 7.95508C11.4648 7.75586 11.5137 7.53125 11.5137 7.28125C11.5137 7.02734 11.4648 6.79102 11.3672 6.57227C11.2695 6.35352 11.1152 6.17773 10.9043 6.04492C10.6934 5.91211 10.4199 5.8457 10.084 5.8457H8.51953V13H6.76172V4.46875H10.084C10.752 4.46875 11.3242 4.58984 11.8008 4.83203C12.2812 5.07031 12.6484 5.40039 12.9023 5.82227C13.1562 6.24414 13.2832 6.72656 13.2832 7.26953C13.2832 7.82031 13.1562 8.29688 12.9023 8.69922C12.6484 9.10156 12.2812 9.41211 11.8008 9.63086C11.3242 9.84961 10.752 9.95898 10.084 9.95898ZM17.7422 11.5703V8.74609C17.7422 8.54297 17.709 8.36914 17.6426 8.22461C17.5762 8.07617 17.4727 7.96094 17.332 7.87891C17.1953 7.79688 17.0176 7.75586 16.7988 7.75586C16.6113 7.75586 16.4492 7.78906 16.3125 7.85547C16.1758 7.91797 16.0703 8.00977 15.9961 8.13086C15.9219 8.24805 15.8848 8.38672 15.8848 8.54688H14.1973C14.1973 8.27734 14.2598 8.02148 14.3848 7.7793C14.5098 7.53711 14.6914 7.32422 14.9297 7.14062C15.168 6.95312 15.4512 6.80664 15.7793 6.70117C16.1113 6.5957 16.4824 6.54297 16.8926 6.54297C17.3848 6.54297 17.8223 6.625 18.2051 6.78906C18.5879 6.95312 18.8887 7.19922 19.1074 7.52734C19.3301 7.85547 19.4414 8.26562 19.4414 8.75781V11.4707C19.4414 11.8184 19.4629 12.1035 19.5059 12.3262C19.5488 12.5449 19.6113 12.7363 19.6934 12.9004V13H17.9883C17.9062 12.8281 17.8438 12.6133 17.8008 12.3555C17.7617 12.0938 17.7422 11.832 17.7422 11.5703ZM17.9648 9.13867L17.9766 10.0938H17.0332C16.8105 10.0938 16.6172 10.1191 16.4531 10.1699C16.2891 10.2207 16.1543 10.293 16.0488 10.3867C15.9434 10.4766 15.8652 10.582 15.8145 10.7031C15.7676 10.8242 15.7441 10.957 15.7441 11.1016C15.7441 11.2461 15.7773 11.377 15.8438 11.4941C15.9102 11.6074 16.0059 11.6973 16.1309 11.7637C16.2559 11.8262 16.4023 11.8574 16.5703 11.8574C16.8242 11.8574 17.0449 11.8066 17.2324 11.7051C17.4199 11.6035 17.5645 11.4785 17.666 11.3301C17.7715 11.1816 17.8262 11.041 17.8301 10.9082L18.2754 11.623C18.2129 11.7832 18.127 11.9492 18.0176 12.1211C17.9121 12.293 17.7773 12.4551 17.6133 12.6074C17.4492 12.7559 17.252 12.8789 17.0215 12.9766C16.791 13.0703 16.5176 13.1172 16.2012 13.1172C15.7988 13.1172 15.4336 13.0371 15.1055 12.877C14.7812 12.7129 14.5234 12.4883 14.332 12.2031C14.1445 11.9141 14.0508 11.5859 14.0508 11.2188C14.0508 10.8867 14.1133 10.5918 14.2383 10.334C14.3633 10.0762 14.5469 9.85938 14.7891 9.68359C15.0352 9.50391 15.3418 9.36914 15.709 9.2793C16.0762 9.18555 16.502 9.13867 16.9863 9.13867H17.9648ZM22.5293 12.2852L24.2109 6.66016H26.0215L23.4727 13.9551C23.418 14.1152 23.3438 14.2871 23.25 14.4707C23.1602 14.6543 23.0371 14.8281 22.8809 14.9922C22.7285 15.1602 22.5352 15.2969 22.3008 15.4023C22.0703 15.5078 21.7871 15.5605 21.4512 15.5605C21.291 15.5605 21.1602 15.5508 21.0586 15.5312C20.957 15.5117 20.8359 15.4844 20.6953 15.4492V14.2129C20.7383 14.2129 20.7832 14.2129 20.8301 14.2129C20.877 14.2168 20.9219 14.2188 20.9648 14.2188C21.1875 14.2188 21.3691 14.1934 21.5098 14.1426C21.6504 14.0918 21.7637 14.0137 21.8496 13.9082C21.9355 13.8066 22.0039 13.6738 22.0547 13.5098L22.5293 12.2852ZM21.8262 6.66016L23.2031 11.2539L23.4434 13.041L22.2949 13.1641L20.0156 6.66016H21.8262ZM28.3828 7.97266V13H26.6895V6.66016H28.2773L28.3828 7.97266ZM28.1484 9.60742H27.6797C27.6797 9.16602 27.7324 8.75977 27.8379 8.38867C27.9473 8.01367 28.1055 7.68945 28.3125 7.41602C28.5234 7.13867 28.7832 6.92383 29.0918 6.77148C29.4004 6.61914 29.7578 6.54297 30.1641 6.54297C30.4453 6.54297 30.7031 6.58594 30.9375 6.67188C31.1719 6.75391 31.373 6.88477 31.541 7.06445C31.7129 7.24023 31.8457 7.4707 31.9395 7.75586C32.0332 8.03711 32.0801 8.375 32.0801 8.76953V13H30.3926V8.95703C30.3926 8.66797 30.3535 8.44531 30.2754 8.28906C30.1973 8.13281 30.0859 8.02344 29.9414 7.96094C29.8008 7.89844 29.6309 7.86719 29.4316 7.86719C29.2129 7.86719 29.0215 7.91211 28.8574 8.00195C28.6973 8.0918 28.5645 8.2168 28.459 8.37695C28.3535 8.5332 28.2754 8.7168 28.2246 8.92773C28.1738 9.13867 28.1484 9.36523 28.1484 9.60742ZM31.9219 9.41406L31.3184 9.49023C31.3184 9.07617 31.3691 8.69141 31.4707 8.33594C31.5762 7.98047 31.7305 7.66797 31.9336 7.39844C32.1406 7.12891 32.3965 6.91992 32.7012 6.77148C33.0059 6.61914 33.3574 6.54297 33.7559 6.54297C34.0605 6.54297 34.3379 6.58789 34.5879 6.67773C34.8379 6.76367 35.0508 6.90234 35.2266 7.09375C35.4062 7.28125 35.543 7.52734 35.6367 7.83203C35.7344 8.13672 35.7832 8.50977 35.7832 8.95117V13H34.0898V8.95117C34.0898 8.6582 34.0508 8.43555 33.9727 8.2832C33.8984 8.12695 33.7891 8.01953 33.6445 7.96094C33.5039 7.89844 33.3359 7.86719 33.1406 7.86719C32.9375 7.86719 32.7598 7.9082 32.6074 7.99023C32.4551 8.06836 32.3281 8.17773 32.2266 8.31836C32.125 8.45898 32.0488 8.62305 31.998 8.81055C31.9473 8.99414 31.9219 9.19531 31.9219 9.41406ZM40.0078 13.1172C39.5156 13.1172 39.0742 13.0391 38.6836 12.8828C38.293 12.7227 37.9609 12.502 37.6875 12.2207C37.418 11.9395 37.2109 11.6133 37.0664 11.2422C36.9219 10.8672 36.8496 10.4688 36.8496 10.0469V9.8125C36.8496 9.33203 36.918 8.89258 37.0547 8.49414C37.1914 8.0957 37.3867 7.75 37.6406 7.45703C37.8984 7.16406 38.2109 6.93945 38.5781 6.7832C38.9453 6.62305 39.3594 6.54297 39.8203 6.54297C40.2695 6.54297 40.668 6.61719 41.0156 6.76562C41.3633 6.91406 41.6543 7.125 41.8887 7.39844C42.127 7.67188 42.3066 8 42.4277 8.38281C42.5488 8.76172 42.6094 9.18359 42.6094 9.64844V10.3516H37.5703V9.22656H40.9512V9.09766C40.9512 8.86328 40.9082 8.6543 40.8223 8.4707C40.7402 8.2832 40.6152 8.13477 40.4473 8.02539C40.2793 7.91602 40.0645 7.86133 39.8027 7.86133C39.5801 7.86133 39.3887 7.91016 39.2285 8.00781C39.0684 8.10547 38.9375 8.24219 38.8359 8.41797C38.7383 8.59375 38.6641 8.80078 38.6133 9.03906C38.5664 9.27344 38.543 9.53125 38.543 9.8125V10.0469C38.543 10.3008 38.5781 10.5352 38.6484 10.75C38.7227 10.9648 38.8262 11.1504 38.959 11.3066C39.0957 11.4629 39.2598 11.584 39.4512 11.6699C39.6465 11.7559 39.8672 11.7988 40.1133 11.7988C40.418 11.7988 40.7012 11.7402 40.9629 11.623C41.2285 11.502 41.457 11.3203 41.6484 11.0781L42.4688 11.9688C42.3359 12.1602 42.1543 12.3438 41.9238 12.5195C41.6973 12.6953 41.4238 12.8398 41.1035 12.9531C40.7832 13.0625 40.418 13.1172 40.0078 13.1172ZM45.2227 8.01367V13H43.5352V6.66016H45.1172L45.2227 8.01367ZM44.9766 9.60742H44.5195C44.5195 9.13867 44.5801 8.7168 44.7012 8.3418C44.8223 7.96289 44.9922 7.64062 45.2109 7.375C45.4297 7.10547 45.6895 6.90039 45.9902 6.75977C46.2949 6.61523 46.6348 6.54297 47.0098 6.54297C47.3066 6.54297 47.5781 6.58594 47.8242 6.67188C48.0703 6.75781 48.2812 6.89453 48.457 7.08203C48.6367 7.26953 48.7734 7.51758 48.8672 7.82617C48.9648 8.13477 49.0137 8.51172 49.0137 8.95703V13H47.3145V8.95117C47.3145 8.66992 47.2754 8.45117 47.1973 8.29492C47.1191 8.13867 47.0039 8.0293 46.8516 7.9668C46.7031 7.90039 46.5195 7.86719 46.3008 7.86719C46.0742 7.86719 45.877 7.91211 45.709 8.00195C45.5449 8.0918 45.4082 8.2168 45.2988 8.37695C45.1934 8.5332 45.1133 8.7168 45.0586 8.92773C45.0039 9.13867 44.9766 9.36523 44.9766 9.60742ZM53.4023 6.66016V7.85547H49.7109V6.66016H53.4023ZM50.625 5.0957H52.3125V11.0898C52.3125 11.2734 52.3359 11.4141 52.3828 11.5117C52.4336 11.6094 52.5078 11.6777 52.6055 11.7168C52.7031 11.752 52.8262 11.7695 52.9746 11.7695C53.0801 11.7695 53.1738 11.7656 53.2559 11.7578C53.3418 11.7461 53.4141 11.7344 53.4727 11.7227L53.4785 12.9648C53.334 13.0117 53.1777 13.0488 53.0098 13.0762C52.8418 13.1035 52.6562 13.1172 52.4531 13.1172C52.082 13.1172 51.7578 13.0566 51.4805 12.9355C51.207 12.8105 50.9961 12.6113 50.8477 12.3379C50.6992 12.0645 50.625 11.7051 50.625 11.2598V5.0957ZM57.791 11.248C57.791 11.127 57.7559 11.0176 57.6855 10.9199C57.6152 10.8223 57.4844 10.7324 57.293 10.6504C57.1055 10.5645 56.834 10.4863 56.4785 10.416C56.1582 10.3457 55.8594 10.2578 55.582 10.1523C55.3086 10.043 55.0703 9.91211 54.8672 9.75977C54.668 9.60742 54.5117 9.42773 54.3984 9.2207C54.2852 9.00977 54.2285 8.76953 54.2285 8.5C54.2285 8.23438 54.2852 7.98438 54.3984 7.75C54.5156 7.51562 54.6816 7.30859 54.8965 7.12891C55.1152 6.94531 55.3809 6.80273 55.6934 6.70117C56.0098 6.5957 56.3652 6.54297 56.7598 6.54297C57.3105 6.54297 57.7832 6.63086 58.1777 6.80664C58.5762 6.98242 58.8809 7.22461 59.0918 7.5332C59.3066 7.83789 59.4141 8.18555 59.4141 8.57617H57.7266C57.7266 8.41211 57.6914 8.26562 57.6211 8.13672C57.5547 8.00391 57.4492 7.90039 57.3047 7.82617C57.1641 7.74805 56.9805 7.70898 56.7539 7.70898C56.5664 7.70898 56.4043 7.74219 56.2676 7.80859C56.1309 7.87109 56.0254 7.95703 55.9512 8.06641C55.8809 8.17188 55.8457 8.28906 55.8457 8.41797C55.8457 8.51562 55.8652 8.60352 55.9043 8.68164C55.9473 8.75586 56.0156 8.82422 56.1094 8.88672C56.2031 8.94922 56.3242 9.00781 56.4727 9.0625C56.625 9.11328 56.8125 9.16016 57.0352 9.20312C57.4922 9.29688 57.9004 9.41992 58.2598 9.57227C58.6191 9.7207 58.9043 9.92383 59.1152 10.1816C59.3262 10.4355 59.4316 10.7695 59.4316 11.1836C59.4316 11.4648 59.3691 11.7227 59.2441 11.957C59.1191 12.1914 58.9395 12.3965 58.7051 12.5723C58.4707 12.7441 58.1895 12.8789 57.8613 12.9766C57.5371 13.0703 57.1719 13.1172 56.7656 13.1172C56.1758 13.1172 55.6758 13.0117 55.2656 12.8008C54.8594 12.5898 54.5508 12.3223 54.3398 11.998C54.1328 11.6699 54.0293 11.334 54.0293 10.9902H55.6289C55.6367 11.2207 55.6953 11.4062 55.8047 11.5469C55.918 11.6875 56.0605 11.7891 56.2324 11.8516C56.4082 11.9141 56.5977 11.9453 56.8008 11.9453C57.0195 11.9453 57.2012 11.916 57.3457 11.8574C57.4902 11.7949 57.5996 11.7129 57.6738 11.6113C57.752 11.5059 57.791 11.3848 57.791 11.248Z" fill="white"/>
</svg>
