<svg width="143" height="18" viewBox="0 0 143 18" fill="none" xmlns="http://www.w3.org/2000/svg">
<rect x="0.5" y="0.5" width="135" height="17" fill="#A22B2B" stroke="#AA2F2F"/>
<path d="M14.084 9.95898H11.9102V8.58789H14.084C14.4199 8.58789 14.6934 8.5332 14.9043 8.42383C15.1152 8.31055 15.2695 8.1543 15.3672 7.95508C15.4648 7.75586 15.5137 7.53125 15.5137 7.28125C15.5137 7.02734 15.4648 6.79102 15.3672 6.57227C15.2695 6.35352 15.1152 6.17773 14.9043 6.04492C14.6934 5.91211 14.4199 5.8457 14.084 5.8457H12.5195V13H10.7617V4.46875H14.084C14.752 4.46875 15.3242 4.58984 15.8008 4.83203C16.2812 5.07031 16.6484 5.40039 16.9023 5.82227C17.1562 6.24414 17.2832 6.72656 17.2832 7.26953C17.2832 7.82031 17.1562 8.29688 16.9023 8.69922C16.6484 9.10156 16.2812 9.41211 15.8008 9.63086C15.3242 9.84961 14.752 9.95898 14.084 9.95898ZM20.0781 8.04297V13H18.3906V6.66016H19.9785L20.0781 8.04297ZM21.9883 6.61914L21.959 8.18359C21.877 8.17188 21.7773 8.16211 21.6602 8.1543C21.5469 8.14258 21.4434 8.13672 21.3496 8.13672C21.1113 8.13672 20.9043 8.16797 20.7285 8.23047C20.5566 8.28906 20.4121 8.37695 20.2949 8.49414C20.1816 8.61133 20.0957 8.75391 20.0371 8.92188C19.9824 9.08984 19.9512 9.28125 19.9434 9.49609L19.6035 9.39062C19.6035 8.98047 19.6445 8.60352 19.7266 8.25977C19.8086 7.91211 19.9277 7.60938 20.084 7.35156C20.2441 7.09375 20.4395 6.89453 20.6699 6.75391C20.9004 6.61328 21.1641 6.54297 21.4609 6.54297C21.5547 6.54297 21.6504 6.55078 21.748 6.56641C21.8457 6.57812 21.9258 6.5957 21.9883 6.61914ZM25.5859 13.1172C25.0938 13.1172 24.6523 13.0391 24.2617 12.8828C23.8711 12.7227 23.5391 12.502 23.2656 12.2207C22.9961 11.9395 22.7891 11.6133 22.6445 11.2422C22.5 10.8672 22.4277 10.4688 22.4277 10.0469V9.8125C22.4277 9.33203 22.4961 8.89258 22.6328 8.49414C22.7695 8.0957 22.9648 7.75 23.2188 7.45703C23.4766 7.16406 23.7891 6.93945 24.1562 6.7832C24.5234 6.62305 24.9375 6.54297 25.3984 6.54297C25.8477 6.54297 26.2461 6.61719 26.5938 6.76562C26.9414 6.91406 27.2324 7.125 27.4668 7.39844C27.7051 7.67188 27.8848 8 28.0059 8.38281C28.127 8.76172 28.1875 9.18359 28.1875 9.64844V10.3516H23.1484V9.22656H26.5293V9.09766C26.5293 8.86328 26.4863 8.6543 26.4004 8.4707C26.3184 8.2832 26.1934 8.13477 26.0254 8.02539C25.8574 7.91602 25.6426 7.86133 25.3809 7.86133C25.1582 7.86133 24.9668 7.91016 24.8066 8.00781C24.6465 8.10547 24.5156 8.24219 24.4141 8.41797C24.3164 8.59375 24.2422 8.80078 24.1914 9.03906C24.1445 9.27344 24.1211 9.53125 24.1211 9.8125V10.0469C24.1211 10.3008 24.1562 10.5352 24.2266 10.75C24.3008 10.9648 24.4043 11.1504 24.5371 11.3066C24.6738 11.4629 24.8379 11.584 25.0293 11.6699C25.2246 11.7559 25.4453 11.7988 25.6914 11.7988C25.9961 11.7988 26.2793 11.7402 26.541 11.623C26.8066 11.502 27.0352 11.3203 27.2266 11.0781L28.0469 11.9688C27.9141 12.1602 27.7324 12.3438 27.502 12.5195C27.2754 12.6953 27.002 12.8398 26.6816 12.9531C26.3613 13.0625 25.9961 13.1172 25.5859 13.1172ZM32.5762 11.248C32.5762 11.127 32.541 11.0176 32.4707 10.9199C32.4004 10.8223 32.2695 10.7324 32.0781 10.6504C31.8906 10.5645 31.6191 10.4863 31.2637 10.416C30.9434 10.3457 30.6445 10.2578 30.3672 10.1523C30.0938 10.043 29.8555 9.91211 29.6523 9.75977C29.4531 9.60742 29.2969 9.42773 29.1836 9.2207C29.0703 9.00977 29.0137 8.76953 29.0137 8.5C29.0137 8.23438 29.0703 7.98438 29.1836 7.75C29.3008 7.51562 29.4668 7.30859 29.6816 7.12891C29.9004 6.94531 30.166 6.80273 30.4785 6.70117C30.7949 6.5957 31.1504 6.54297 31.5449 6.54297C32.0957 6.54297 32.5684 6.63086 32.9629 6.80664C33.3613 6.98242 33.666 7.22461 33.877 7.5332C34.0918 7.83789 34.1992 8.18555 34.1992 8.57617H32.5117C32.5117 8.41211 32.4766 8.26562 32.4062 8.13672C32.3398 8.00391 32.2344 7.90039 32.0898 7.82617C31.9492 7.74805 31.7656 7.70898 31.5391 7.70898C31.3516 7.70898 31.1895 7.74219 31.0527 7.80859C30.916 7.87109 30.8105 7.95703 30.7363 8.06641C30.666 8.17188 30.6309 8.28906 30.6309 8.41797C30.6309 8.51562 30.6504 8.60352 30.6895 8.68164C30.7324 8.75586 30.8008 8.82422 30.8945 8.88672C30.9883 8.94922 31.1094 9.00781 31.2578 9.0625C31.4102 9.11328 31.5977 9.16016 31.8203 9.20312C32.2773 9.29688 32.6855 9.41992 33.0449 9.57227C33.4043 9.7207 33.6895 9.92383 33.9004 10.1816C34.1113 10.4355 34.2168 10.7695 34.2168 11.1836C34.2168 11.4648 34.1543 11.7227 34.0293 11.957C33.9043 12.1914 33.7246 12.3965 33.4902 12.5723C33.2559 12.7441 32.9746 12.8789 32.6465 12.9766C32.3223 13.0703 31.957 13.1172 31.5508 13.1172C30.9609 13.1172 30.4609 13.0117 30.0508 12.8008C29.6445 12.5898 29.3359 12.3223 29.125 11.998C28.918 11.6699 28.8145 11.334 28.8145 10.9902H30.4141C30.4219 11.2207 30.4805 11.4062 30.5898 11.5469C30.7031 11.6875 30.8457 11.7891 31.0176 11.8516C31.1934 11.9141 31.3828 11.9453 31.5859 11.9453C31.8047 11.9453 31.9863 11.916 32.1309 11.8574C32.2754 11.7949 32.3848 11.7129 32.459 11.6113C32.5371 11.5059 32.5762 11.3848 32.5762 11.248ZM38.2305 13.1172C37.7383 13.1172 37.2969 13.0391 36.9062 12.8828C36.5156 12.7227 36.1836 12.502 35.9102 12.2207C35.6406 11.9395 35.4336 11.6133 35.2891 11.2422C35.1445 10.8672 35.0723 10.4688 35.0723 10.0469V9.8125C35.0723 9.33203 35.1406 8.89258 35.2773 8.49414C35.4141 8.0957 35.6094 7.75 35.8633 7.45703C36.1211 7.16406 36.4336 6.93945 36.8008 6.7832C37.168 6.62305 37.582 6.54297 38.043 6.54297C38.4922 6.54297 38.8906 6.61719 39.2383 6.76562C39.5859 6.91406 39.877 7.125 40.1113 7.39844C40.3496 7.67188 40.5293 8 40.6504 8.38281C40.7715 8.76172 40.832 9.18359 40.832 9.64844V10.3516H35.793V9.22656H39.1738V9.09766C39.1738 8.86328 39.1309 8.6543 39.0449 8.4707C38.9629 8.2832 38.8379 8.13477 38.6699 8.02539C38.502 7.91602 38.2871 7.86133 38.0254 7.86133C37.8027 7.86133 37.6113 7.91016 37.4512 8.00781C37.291 8.10547 37.1602 8.24219 37.0586 8.41797C36.9609 8.59375 36.8867 8.80078 36.8359 9.03906C36.7891 9.27344 36.7656 9.53125 36.7656 9.8125V10.0469C36.7656 10.3008 36.8008 10.5352 36.8711 10.75C36.9453 10.9648 37.0488 11.1504 37.1816 11.3066C37.3184 11.4629 37.4824 11.584 37.6738 11.6699C37.8691 11.7559 38.0898 11.7988 38.3359 11.7988C38.6406 11.7988 38.9238 11.7402 39.1855 11.623C39.4512 11.502 39.6797 11.3203 39.8711 11.0781L40.6914 11.9688C40.5586 12.1602 40.377 12.3438 40.1465 12.5195C39.9199 12.6953 39.6465 12.8398 39.3262 12.9531C39.0059 13.0625 38.6406 13.1172 38.2305 13.1172ZM43.4453 8.01367V13H41.7578V6.66016H43.3398L43.4453 8.01367ZM43.1992 9.60742H42.7422C42.7422 9.13867 42.8027 8.7168 42.9238 8.3418C43.0449 7.96289 43.2148 7.64062 43.4336 7.375C43.6523 7.10547 43.9121 6.90039 44.2129 6.75977C44.5176 6.61523 44.8574 6.54297 45.2324 6.54297C45.5293 6.54297 45.8008 6.58594 46.0469 6.67188C46.293 6.75781 46.5039 6.89453 46.6797 7.08203C46.8594 7.26953 46.9961 7.51758 47.0898 7.82617C47.1875 8.13477 47.2363 8.51172 47.2363 8.95703V13H45.5371V8.95117C45.5371 8.66992 45.498 8.45117 45.4199 8.29492C45.3418 8.13867 45.2266 8.0293 45.0742 7.9668C44.9258 7.90039 44.7422 7.86719 44.5234 7.86719C44.2969 7.86719 44.0996 7.91211 43.9316 8.00195C43.7676 8.0918 43.6309 8.2168 43.5215 8.37695C43.416 8.5332 43.3359 8.7168 43.2812 8.92773C43.2266 9.13867 43.1992 9.36523 43.1992 9.60742ZM51.625 6.66016V7.85547H47.9336V6.66016H51.625ZM48.8477 5.0957H50.5352V11.0898C50.5352 11.2734 50.5586 11.4141 50.6055 11.5117C50.6562 11.6094 50.7305 11.6777 50.8281 11.7168C50.9258 11.752 51.0488 11.7695 51.1973 11.7695C51.3027 11.7695 51.3965 11.7656 51.4785 11.7578C51.5645 11.7461 51.6367 11.7344 51.6953 11.7227L51.7012 12.9648C51.5566 13.0117 51.4004 13.0488 51.2324 13.0762C51.0645 13.1035 50.8789 13.1172 50.6758 13.1172C50.3047 13.1172 49.9805 13.0566 49.7031 12.9355C49.4297 12.8105 49.2188 12.6113 49.0703 12.3379C48.9219 12.0645 48.8477 11.7051 48.8477 11.2598V5.0957ZM54.3672 6.66016V13H52.6738V6.66016H54.3672ZM52.5684 5.00781C52.5684 4.76172 52.6543 4.55859 52.8262 4.39844C52.998 4.23828 53.2285 4.1582 53.5176 4.1582C53.8027 4.1582 54.0312 4.23828 54.2031 4.39844C54.3789 4.55859 54.4668 4.76172 54.4668 5.00781C54.4668 5.25391 54.3789 5.45703 54.2031 5.61719C54.0312 5.77734 53.8027 5.85742 53.5176 5.85742C53.2285 5.85742 52.998 5.77734 52.8262 5.61719C52.6543 5.45703 52.5684 5.25391 52.5684 5.00781ZM57.4141 8.01367V13H55.7266V6.66016H57.3086L57.4141 8.01367ZM57.168 9.60742H56.7109C56.7109 9.13867 56.7715 8.7168 56.8926 8.3418C57.0137 7.96289 57.1836 7.64062 57.4023 7.375C57.6211 7.10547 57.8809 6.90039 58.1816 6.75977C58.4863 6.61523 58.8262 6.54297 59.2012 6.54297C59.498 6.54297 59.7695 6.58594 60.0156 6.67188C60.2617 6.75781 60.4727 6.89453 60.6484 7.08203C60.8281 7.26953 60.9648 7.51758 61.0586 7.82617C61.1562 8.13477 61.2051 8.51172 61.2051 8.95703V13H59.5059V8.95117C59.5059 8.66992 59.4668 8.45117 59.3887 8.29492C59.3105 8.13867 59.1953 8.0293 59.043 7.9668C58.8945 7.90039 58.7109 7.86719 58.4922 7.86719C58.2656 7.86719 58.0684 7.91211 57.9004 8.00195C57.7363 8.0918 57.5996 8.2168 57.4902 8.37695C57.3848 8.5332 57.3047 8.7168 57.25 8.92773C57.1953 9.13867 57.168 9.36523 57.168 9.60742ZM66.502 6.66016H68.0312V12.7891C68.0312 13.3672 67.9023 13.8574 67.6445 14.2598C67.3906 14.666 67.0352 14.9727 66.5781 15.1797C66.1211 15.3906 65.5898 15.4961 64.9844 15.4961C64.7188 15.4961 64.4375 15.4609 64.1406 15.3906C63.8477 15.3203 63.5664 15.2109 63.2969 15.0625C63.0312 14.9141 62.8086 14.7266 62.6289 14.5L63.373 13.5039C63.5684 13.7305 63.7949 13.9062 64.0527 14.0312C64.3105 14.1602 64.5957 14.2246 64.9082 14.2246C65.2129 14.2246 65.4707 14.168 65.6816 14.0547C65.8926 13.9453 66.0547 13.7832 66.168 13.5684C66.2812 13.3574 66.3379 13.1016 66.3379 12.8008V8.125L66.502 6.66016ZM62.2363 9.90625V9.7832C62.2363 9.29883 62.2949 8.85938 62.4121 8.46484C62.5332 8.06641 62.7031 7.72461 62.9219 7.43945C63.1445 7.1543 63.4141 6.93359 63.7305 6.77734C64.0469 6.62109 64.4043 6.54297 64.8027 6.54297C65.2246 6.54297 65.5781 6.62109 65.8633 6.77734C66.1484 6.93359 66.3828 7.15625 66.5664 7.44531C66.75 7.73047 66.8926 8.06836 66.9941 8.45898C67.0996 8.8457 67.1816 9.26953 67.2402 9.73047V10C67.1816 10.4414 67.0938 10.8516 66.9766 11.2305C66.8594 11.6094 66.7051 11.9414 66.5137 12.2266C66.3223 12.5078 66.084 12.7266 65.7988 12.8828C65.5176 13.0391 65.1816 13.1172 64.791 13.1172C64.4004 13.1172 64.0469 13.0371 63.7305 12.877C63.418 12.7168 63.1504 12.4922 62.9277 12.2031C62.7051 11.9141 62.5332 11.5742 62.4121 11.1836C62.2949 10.793 62.2363 10.3672 62.2363 9.90625ZM63.9238 9.7832V9.90625C63.9238 10.168 63.9492 10.4121 64 10.6387C64.0508 10.8652 64.1289 11.0664 64.2344 11.2422C64.3438 11.4141 64.4785 11.5488 64.6387 11.6465C64.8027 11.7402 64.9961 11.7871 65.2188 11.7871C65.5273 11.7871 65.7793 11.7227 65.9746 11.5938C66.1699 11.4609 66.3164 11.2793 66.4141 11.0488C66.5117 10.8184 66.5684 10.5527 66.584 10.252V9.48438C66.5762 9.23828 66.543 9.01758 66.4844 8.82227C66.4258 8.62305 66.3438 8.45312 66.2383 8.3125C66.1328 8.17188 65.9961 8.0625 65.8281 7.98438C65.6602 7.90625 65.4609 7.86719 65.2305 7.86719C65.0078 7.86719 64.8145 7.91797 64.6504 8.01953C64.4902 8.11719 64.3555 8.25195 64.2461 8.42383C64.1406 8.5957 64.0605 8.79883 64.0059 9.0332C63.9512 9.26367 63.9238 9.51367 63.9238 9.7832ZM77.3828 10.1699H79.1348C79.0996 10.7441 78.9414 11.2539 78.6602 11.6992C78.3828 12.1445 77.9941 12.4922 77.4941 12.7422C76.998 12.9922 76.4004 13.1172 75.7012 13.1172C75.1543 13.1172 74.6641 13.0234 74.2305 12.8359C73.7969 12.6445 73.4258 12.3711 73.1172 12.0156C72.8125 11.6602 72.5801 11.2305 72.4199 10.7266C72.2598 10.2227 72.1797 9.6582 72.1797 9.0332V8.44141C72.1797 7.81641 72.2617 7.25195 72.4258 6.74805C72.5938 6.24023 72.832 5.80859 73.1406 5.45312C73.4531 5.09766 73.8262 4.82422 74.2598 4.63281C74.6934 4.44141 75.1777 4.3457 75.7129 4.3457C76.4238 4.3457 77.0234 4.47461 77.5117 4.73242C78.0039 4.99023 78.3848 5.3457 78.6543 5.79883C78.9277 6.25195 79.0918 6.76758 79.1465 7.3457H77.3887C77.3691 7.00195 77.3008 6.71094 77.1836 6.47266C77.0664 6.23047 76.8887 6.04883 76.6504 5.92773C76.416 5.80273 76.1035 5.74023 75.7129 5.74023C75.4199 5.74023 75.1641 5.79492 74.9453 5.9043C74.7266 6.01367 74.543 6.17969 74.3945 6.40234C74.2461 6.625 74.1348 6.90625 74.0605 7.24609C73.9902 7.58203 73.9551 7.97656 73.9551 8.42969V9.0332C73.9551 9.47461 73.9883 9.86328 74.0547 10.1992C74.1211 10.5312 74.2227 10.8125 74.3594 11.043C74.5 11.2695 74.6797 11.4414 74.8984 11.5586C75.1211 11.6719 75.3887 11.7285 75.7012 11.7285C76.0684 11.7285 76.3711 11.6699 76.6094 11.5527C76.8477 11.4355 77.0293 11.2617 77.1543 11.0312C77.2832 10.8008 77.3594 10.5137 77.3828 10.1699ZM79.9141 9.89453V9.77148C79.9141 9.30664 79.9805 8.87891 80.1133 8.48828C80.2461 8.09375 80.4395 7.75195 80.6934 7.46289C80.9473 7.17383 81.2598 6.94922 81.6309 6.78906C82.002 6.625 82.4277 6.54297 82.9082 6.54297C83.3887 6.54297 83.8164 6.625 84.1914 6.78906C84.5664 6.94922 84.8809 7.17383 85.1348 7.46289C85.3926 7.75195 85.5879 8.09375 85.7207 8.48828C85.8535 8.87891 85.9199 9.30664 85.9199 9.77148V9.89453C85.9199 10.3555 85.8535 10.7832 85.7207 11.1777C85.5879 11.5684 85.3926 11.9102 85.1348 12.2031C84.8809 12.4922 84.5684 12.7168 84.1973 12.877C83.8262 13.0371 83.4004 13.1172 82.9199 13.1172C82.4395 13.1172 82.0117 13.0371 81.6367 12.877C81.2656 12.7168 80.9512 12.4922 80.6934 12.2031C80.4395 11.9102 80.2461 11.5684 80.1133 11.1777C79.9805 10.7832 79.9141 10.3555 79.9141 9.89453ZM81.6016 9.77148V9.89453C81.6016 10.1602 81.625 10.4082 81.6719 10.6387C81.7188 10.8691 81.793 11.0723 81.8945 11.248C82 11.4199 82.1367 11.5547 82.3047 11.6523C82.4727 11.75 82.6777 11.7988 82.9199 11.7988C83.1543 11.7988 83.3555 11.75 83.5234 11.6523C83.6914 11.5547 83.8262 11.4199 83.9277 11.248C84.0293 11.0723 84.1035 10.8691 84.1504 10.6387C84.2012 10.4082 84.2266 10.1602 84.2266 9.89453V9.77148C84.2266 9.51367 84.2012 9.27148 84.1504 9.04492C84.1035 8.81445 84.0273 8.61133 83.9219 8.43555C83.8203 8.25586 83.6855 8.11523 83.5176 8.01367C83.3496 7.91211 83.1465 7.86133 82.9082 7.86133C82.6699 7.86133 82.4668 7.91211 82.2988 8.01367C82.1348 8.11523 82 8.25586 81.8945 8.43555C81.793 8.61133 81.7188 8.81445 81.6719 9.04492C81.625 9.27148 81.6016 9.51367 81.6016 9.77148ZM88.6445 7.97266V13H86.9512V6.66016H88.5391L88.6445 7.97266ZM88.4102 9.60742H87.9414C87.9414 9.16602 87.9941 8.75977 88.0996 8.38867C88.209 8.01367 88.3672 7.68945 88.5742 7.41602C88.7852 7.13867 89.0449 6.92383 89.3535 6.77148C89.6621 6.61914 90.0195 6.54297 90.4258 6.54297C90.707 6.54297 90.9648 6.58594 91.1992 6.67188C91.4336 6.75391 91.6348 6.88477 91.8027 7.06445C91.9746 7.24023 92.1074 7.4707 92.2012 7.75586C92.2949 8.03711 92.3418 8.375 92.3418 8.76953V13H90.6543V8.95703C90.6543 8.66797 90.6152 8.44531 90.5371 8.28906C90.459 8.13281 90.3477 8.02344 90.2031 7.96094C90.0625 7.89844 89.8926 7.86719 89.6934 7.86719C89.4746 7.86719 89.2832 7.91211 89.1191 8.00195C88.959 8.0918 88.8262 8.2168 88.7207 8.37695C88.6152 8.5332 88.5371 8.7168 88.4863 8.92773C88.4355 9.13867 88.4102 9.36523 88.4102 9.60742ZM92.1836 9.41406L91.5801 9.49023C91.5801 9.07617 91.6309 8.69141 91.7324 8.33594C91.8379 7.98047 91.9922 7.66797 92.1953 7.39844C92.4023 7.12891 92.6582 6.91992 92.9629 6.77148C93.2676 6.61914 93.6191 6.54297 94.0176 6.54297C94.3223 6.54297 94.5996 6.58789 94.8496 6.67773C95.0996 6.76367 95.3125 6.90234 95.4883 7.09375C95.668 7.28125 95.8047 7.52734 95.8984 7.83203C95.9961 8.13672 96.0449 8.50977 96.0449 8.95117V13H94.3516V8.95117C94.3516 8.6582 94.3125 8.43555 94.2344 8.2832C94.1602 8.12695 94.0508 8.01953 93.9062 7.96094C93.7656 7.89844 93.5977 7.86719 93.4023 7.86719C93.1992 7.86719 93.0215 7.9082 92.8691 7.99023C92.7168 8.06836 92.5898 8.17773 92.4883 8.31836C92.3867 8.45898 92.3105 8.62305 92.2598 8.81055C92.209 8.99414 92.1836 9.19531 92.1836 9.41406ZM99.0391 7.87891V15.4375H97.3516V6.66016H98.916L99.0391 7.87891ZM103.053 9.75977V9.88281C103.053 10.3438 102.998 10.7715 102.889 11.166C102.783 11.5605 102.627 11.9043 102.42 12.1973C102.213 12.4863 101.955 12.7129 101.646 12.877C101.342 13.0371 100.99 13.1172 100.592 13.1172C100.205 13.1172 99.8691 13.0391 99.584 12.8828C99.2988 12.7266 99.0586 12.5078 98.8633 12.2266C98.6719 11.9414 98.5176 11.6113 98.4004 11.2363C98.2832 10.8613 98.1934 10.459 98.1309 10.0293V9.70703C98.1934 9.24609 98.2832 8.82422 98.4004 8.44141C98.5176 8.05469 98.6719 7.7207 98.8633 7.43945C99.0586 7.1543 99.2969 6.93359 99.5781 6.77734C99.8633 6.62109 100.197 6.54297 100.58 6.54297C100.982 6.54297 101.336 6.61914 101.641 6.77148C101.949 6.92383 102.207 7.14258 102.414 7.42773C102.625 7.71289 102.783 8.05273 102.889 8.44727C102.998 8.8418 103.053 9.2793 103.053 9.75977ZM101.359 9.88281V9.75977C101.359 9.49023 101.336 9.24219 101.289 9.01562C101.246 8.78516 101.176 8.58398 101.078 8.41211C100.984 8.24023 100.859 8.10742 100.703 8.01367C100.551 7.91602 100.365 7.86719 100.146 7.86719C99.916 7.86719 99.7188 7.9043 99.5547 7.97852C99.3945 8.05273 99.2637 8.16016 99.1621 8.30078C99.0605 8.44141 98.9844 8.60938 98.9336 8.80469C98.8828 9 98.8516 9.2207 98.8398 9.4668V10.2812C98.8594 10.5703 98.9141 10.8301 99.0039 11.0605C99.0938 11.2871 99.2324 11.4668 99.4199 11.5996C99.6074 11.7324 99.8535 11.7988 100.158 11.7988C100.381 11.7988 100.568 11.75 100.721 11.6523C100.873 11.5508 100.996 11.4121 101.09 11.2363C101.188 11.0605 101.256 10.8574 101.295 10.627C101.338 10.3965 101.359 10.1484 101.359 9.88281ZM105.883 4V13H104.189V4H105.883ZM110.699 11.5703V8.74609C110.699 8.54297 110.666 8.36914 110.6 8.22461C110.533 8.07617 110.43 7.96094 110.289 7.87891C110.152 7.79688 109.975 7.75586 109.756 7.75586C109.568 7.75586 109.406 7.78906 109.27 7.85547C109.133 7.91797 109.027 8.00977 108.953 8.13086C108.879 8.24805 108.842 8.38672 108.842 8.54688H107.154C107.154 8.27734 107.217 8.02148 107.342 7.7793C107.467 7.53711 107.648 7.32422 107.887 7.14062C108.125 6.95312 108.408 6.80664 108.736 6.70117C109.068 6.5957 109.439 6.54297 109.85 6.54297C110.342 6.54297 110.779 6.625 111.162 6.78906C111.545 6.95312 111.846 7.19922 112.064 7.52734C112.287 7.85547 112.398 8.26562 112.398 8.75781V11.4707C112.398 11.8184 112.42 12.1035 112.463 12.3262C112.506 12.5449 112.568 12.7363 112.65 12.9004V13H110.945C110.863 12.8281 110.801 12.6133 110.758 12.3555C110.719 12.0938 110.699 11.832 110.699 11.5703ZM110.922 9.13867L110.934 10.0938H109.99C109.768 10.0938 109.574 10.1191 109.41 10.1699C109.246 10.2207 109.111 10.293 109.006 10.3867C108.9 10.4766 108.822 10.582 108.771 10.7031C108.725 10.8242 108.701 10.957 108.701 11.1016C108.701 11.2461 108.734 11.377 108.801 11.4941C108.867 11.6074 108.963 11.6973 109.088 11.7637C109.213 11.8262 109.359 11.8574 109.527 11.8574C109.781 11.8574 110.002 11.8066 110.189 11.7051C110.377 11.6035 110.521 11.4785 110.623 11.3301C110.729 11.1816 110.783 11.041 110.787 10.9082L111.232 11.623C111.17 11.7832 111.084 11.9492 110.975 12.1211C110.869 12.293 110.734 12.4551 110.57 12.6074C110.406 12.7559 110.209 12.8789 109.979 12.9766C109.748 13.0703 109.475 13.1172 109.158 13.1172C108.756 13.1172 108.391 13.0371 108.062 12.877C107.738 12.7129 107.48 12.4883 107.289 12.2031C107.102 11.9141 107.008 11.5859 107.008 11.2188C107.008 10.8867 107.07 10.5918 107.195 10.334C107.32 10.0762 107.504 9.85938 107.746 9.68359C107.992 9.50391 108.299 9.36914 108.666 9.2793C109.033 9.18555 109.459 9.13867 109.943 9.13867H110.922ZM115.48 6.66016V13H113.787V6.66016H115.48ZM113.682 5.00781C113.682 4.76172 113.768 4.55859 113.939 4.39844C114.111 4.23828 114.342 4.1582 114.631 4.1582C114.916 4.1582 115.145 4.23828 115.316 4.39844C115.492 4.55859 115.58 4.76172 115.58 5.00781C115.58 5.25391 115.492 5.45703 115.316 5.61719C115.145 5.77734 114.916 5.85742 114.631 5.85742C114.342 5.85742 114.111 5.77734 113.939 5.61719C113.768 5.45703 113.682 5.25391 113.682 5.00781ZM118.527 8.01367V13H116.84V6.66016H118.422L118.527 8.01367ZM118.281 9.60742H117.824C117.824 9.13867 117.885 8.7168 118.006 8.3418C118.127 7.96289 118.297 7.64062 118.516 7.375C118.734 7.10547 118.994 6.90039 119.295 6.75977C119.6 6.61523 119.939 6.54297 120.314 6.54297C120.611 6.54297 120.883 6.58594 121.129 6.67188C121.375 6.75781 121.586 6.89453 121.762 7.08203C121.941 7.26953 122.078 7.51758 122.172 7.82617C122.27 8.13477 122.318 8.51172 122.318 8.95703V13H120.619V8.95117C120.619 8.66992 120.58 8.45117 120.502 8.29492C120.424 8.13867 120.309 8.0293 120.156 7.9668C120.008 7.90039 119.824 7.86719 119.605 7.86719C119.379 7.86719 119.182 7.91211 119.014 8.00195C118.85 8.0918 118.713 8.2168 118.604 8.37695C118.498 8.5332 118.418 8.7168 118.363 8.92773C118.309 9.13867 118.281 9.36523 118.281 9.60742Z" fill="white"/>
</svg>
