<svg width="33" height="18" viewBox="0 0 33 18" fill="none" xmlns="http://www.w3.org/2000/svg">
<rect x="0.5" y="0.5" width="32" height="17" fill="#A22B2B" stroke="#AA2F2F"/>
<path d="M5.08398 8.95898H2.91016V7.58789H5.08398C5.41992 7.58789 5.69336 7.5332 5.9043 7.42383C6.11523 7.31055 6.26953 7.1543 6.36719 6.95508C6.46484 6.75586 6.51367 6.53125 6.51367 6.28125C6.51367 6.02734 6.46484 5.79102 6.36719 5.57227C6.26953 5.35352 6.11523 5.17773 5.9043 5.04492C5.69336 4.91211 5.41992 4.8457 5.08398 4.8457H3.51953V12H1.76172V3.46875H5.08398C5.75195 3.46875 6.32422 3.58984 6.80078 3.83203C7.28125 4.07031 7.64844 4.40039 7.90234 4.82227C8.15625 5.24414 8.2832 5.72656 8.2832 6.26953C8.2832 6.82031 8.15625 7.29688 7.90234 7.69922C7.64844 8.10156 7.28125 8.41211 6.80078 8.63086C6.32422 8.84961 5.75195 8.95898 5.08398 8.95898ZM11.1719 3V12H9.47852V3H11.1719ZM15.9883 10.5703V7.74609C15.9883 7.54297 15.9551 7.36914 15.8887 7.22461C15.8223 7.07617 15.7188 6.96094 15.5781 6.87891C15.4414 6.79688 15.2637 6.75586 15.0449 6.75586C14.8574 6.75586 14.6953 6.78906 14.5586 6.85547C14.4219 6.91797 14.3164 7.00977 14.2422 7.13086C14.168 7.24805 14.1309 7.38672 14.1309 7.54688H12.4434C12.4434 7.27734 12.5059 7.02148 12.6309 6.7793C12.7559 6.53711 12.9375 6.32422 13.1758 6.14062C13.4141 5.95312 13.6973 5.80664 14.0254 5.70117C14.3574 5.5957 14.7285 5.54297 15.1387 5.54297C15.6309 5.54297 16.0684 5.625 16.4512 5.78906C16.834 5.95312 17.1348 6.19922 17.3535 6.52734C17.5762 6.85547 17.6875 7.26562 17.6875 7.75781V10.4707C17.6875 10.8184 17.709 11.1035 17.752 11.3262C17.7949 11.5449 17.8574 11.7363 17.9395 11.9004V12H16.2344C16.1523 11.8281 16.0898 11.6133 16.0469 11.3555C16.0078 11.0938 15.9883 10.832 15.9883 10.5703ZM16.2109 8.13867L16.2227 9.09375H15.2793C15.0566 9.09375 14.8633 9.11914 14.6992 9.16992C14.5352 9.2207 14.4004 9.29297 14.2949 9.38672C14.1895 9.47656 14.1113 9.58203 14.0605 9.70312C14.0137 9.82422 13.9902 9.95703 13.9902 10.1016C13.9902 10.2461 14.0234 10.377 14.0898 10.4941C14.1562 10.6074 14.252 10.6973 14.377 10.7637C14.502 10.8262 14.6484 10.8574 14.8164 10.8574C15.0703 10.8574 15.291 10.8066 15.4785 10.7051C15.666 10.6035 15.8105 10.4785 15.9121 10.3301C16.0176 10.1816 16.0723 10.041 16.0762 9.9082L16.5215 10.623C16.459 10.7832 16.373 10.9492 16.2637 11.1211C16.1582 11.293 16.0234 11.4551 15.8594 11.6074C15.6953 11.7559 15.498 11.8789 15.2676 11.9766C15.0371 12.0703 14.7637 12.1172 14.4473 12.1172C14.0449 12.1172 13.6797 12.0371 13.3516 11.877C13.0273 11.7129 12.7695 11.4883 12.5781 11.2031C12.3906 10.9141 12.2969 10.5859 12.2969 10.2188C12.2969 9.88672 12.3594 9.5918 12.4844 9.33398C12.6094 9.07617 12.793 8.85938 13.0352 8.68359C13.2812 8.50391 13.5879 8.36914 13.9551 8.2793C14.3223 8.18555 14.748 8.13867 15.2324 8.13867H16.2109ZM20.6406 7.01367V12H18.9531V5.66016H20.5352L20.6406 7.01367ZM20.3945 8.60742H19.9375C19.9375 8.13867 19.998 7.7168 20.1191 7.3418C20.2402 6.96289 20.4102 6.64062 20.6289 6.375C20.8477 6.10547 21.1074 5.90039 21.4082 5.75977C21.7129 5.61523 22.0527 5.54297 22.4277 5.54297C22.7246 5.54297 22.9961 5.58594 23.2422 5.67188C23.4883 5.75781 23.6992 5.89453 23.875 6.08203C24.0547 6.26953 24.1914 6.51758 24.2852 6.82617C24.3828 7.13477 24.4316 7.51172 24.4316 7.95703V12H22.7324V7.95117C22.7324 7.66992 22.6934 7.45117 22.6152 7.29492C22.5371 7.13867 22.4219 7.0293 22.2695 6.9668C22.1211 6.90039 21.9375 6.86719 21.7188 6.86719C21.4922 6.86719 21.2949 6.91211 21.127 7.00195C20.9629 7.0918 20.8262 7.2168 20.7168 7.37695C20.6113 7.5332 20.5312 7.7168 20.4766 7.92773C20.4219 8.13867 20.3945 8.36523 20.3945 8.60742Z" fill="white"/>
</svg>
