<svg width="90" height="18" viewBox="0 0 90 18" fill="none" xmlns="http://www.w3.org/2000/svg">
<rect x="0.5" y="0.5" width="86" height="17" fill="#A22B2B" stroke="#AA2F2F"/>
<path d="M8.08398 9.95898H5.91016V8.58789H8.08398C8.41992 8.58789 8.69336 8.5332 8.9043 8.42383C9.11523 8.31055 9.26953 8.1543 9.36719 7.95508C9.46484 7.75586 9.51367 7.53125 9.51367 7.28125C9.51367 7.02734 9.46484 6.79102 9.36719 6.57227C9.26953 6.35352 9.11523 6.17773 8.9043 6.04492C8.69336 5.91211 8.41992 5.8457 8.08398 5.8457H6.51953V13H4.76172V4.46875H8.08398C8.75195 4.46875 9.32422 4.58984 9.80078 4.83203C10.2812 5.07031 10.6484 5.40039 10.9023 5.82227C11.1562 6.24414 11.2832 6.72656 11.2832 7.26953C11.2832 7.82031 11.1562 8.29688 10.9023 8.69922C10.6484 9.10156 10.2812 9.41211 9.80078 9.63086C9.32422 9.84961 8.75195 9.95898 8.08398 9.95898ZM14.0781 8.04297V13H12.3906V6.66016H13.9785L14.0781 8.04297ZM15.9883 6.61914L15.959 8.18359C15.877 8.17188 15.7773 8.16211 15.6602 8.1543C15.5469 8.14258 15.4434 8.13672 15.3496 8.13672C15.1113 8.13672 14.9043 8.16797 14.7285 8.23047C14.5566 8.28906 14.4121 8.37695 14.2949 8.49414C14.1816 8.61133 14.0957 8.75391 14.0371 8.92188C13.9824 9.08984 13.9512 9.28125 13.9434 9.49609L13.6035 9.39062C13.6035 8.98047 13.6445 8.60352 13.7266 8.25977C13.8086 7.91211 13.9277 7.60938 14.084 7.35156C14.2441 7.09375 14.4395 6.89453 14.6699 6.75391C14.9004 6.61328 15.1641 6.54297 15.4609 6.54297C15.5547 6.54297 15.6504 6.55078 15.748 6.56641C15.8457 6.57812 15.9258 6.5957 15.9883 6.61914ZM19.5859 13.1172C19.0938 13.1172 18.6523 13.0391 18.2617 12.8828C17.8711 12.7227 17.5391 12.502 17.2656 12.2207C16.9961 11.9395 16.7891 11.6133 16.6445 11.2422C16.5 10.8672 16.4277 10.4688 16.4277 10.0469V9.8125C16.4277 9.33203 16.4961 8.89258 16.6328 8.49414C16.7695 8.0957 16.9648 7.75 17.2188 7.45703C17.4766 7.16406 17.7891 6.93945 18.1562 6.7832C18.5234 6.62305 18.9375 6.54297 19.3984 6.54297C19.8477 6.54297 20.2461 6.61719 20.5938 6.76562C20.9414 6.91406 21.2324 7.125 21.4668 7.39844C21.7051 7.67188 21.8848 8 22.0059 8.38281C22.127 8.76172 22.1875 9.18359 22.1875 9.64844V10.3516H17.1484V9.22656H20.5293V9.09766C20.5293 8.86328 20.4863 8.6543 20.4004 8.4707C20.3184 8.2832 20.1934 8.13477 20.0254 8.02539C19.8574 7.91602 19.6426 7.86133 19.3809 7.86133C19.1582 7.86133 18.9668 7.91016 18.8066 8.00781C18.6465 8.10547 18.5156 8.24219 18.4141 8.41797C18.3164 8.59375 18.2422 8.80078 18.1914 9.03906C18.1445 9.27344 18.1211 9.53125 18.1211 9.8125V10.0469C18.1211 10.3008 18.1562 10.5352 18.2266 10.75C18.3008 10.9648 18.4043 11.1504 18.5371 11.3066C18.6738 11.4629 18.8379 11.584 19.0293 11.6699C19.2246 11.7559 19.4453 11.7988 19.6914 11.7988C19.9961 11.7988 20.2793 11.7402 20.541 11.623C20.8066 11.502 21.0352 11.3203 21.2266 11.0781L22.0469 11.9688C21.9141 12.1602 21.7324 12.3438 21.502 12.5195C21.2754 12.6953 21.002 12.8398 20.6816 12.9531C20.3613 13.0625 19.9961 13.1172 19.5859 13.1172ZM26.5762 11.248C26.5762 11.127 26.541 11.0176 26.4707 10.9199C26.4004 10.8223 26.2695 10.7324 26.0781 10.6504C25.8906 10.5645 25.6191 10.4863 25.2637 10.416C24.9434 10.3457 24.6445 10.2578 24.3672 10.1523C24.0938 10.043 23.8555 9.91211 23.6523 9.75977C23.4531 9.60742 23.2969 9.42773 23.1836 9.2207C23.0703 9.00977 23.0137 8.76953 23.0137 8.5C23.0137 8.23438 23.0703 7.98438 23.1836 7.75C23.3008 7.51562 23.4668 7.30859 23.6816 7.12891C23.9004 6.94531 24.166 6.80273 24.4785 6.70117C24.7949 6.5957 25.1504 6.54297 25.5449 6.54297C26.0957 6.54297 26.5684 6.63086 26.9629 6.80664C27.3613 6.98242 27.666 7.22461 27.877 7.5332C28.0918 7.83789 28.1992 8.18555 28.1992 8.57617H26.5117C26.5117 8.41211 26.4766 8.26562 26.4062 8.13672C26.3398 8.00391 26.2344 7.90039 26.0898 7.82617C25.9492 7.74805 25.7656 7.70898 25.5391 7.70898C25.3516 7.70898 25.1895 7.74219 25.0527 7.80859C24.916 7.87109 24.8105 7.95703 24.7363 8.06641C24.666 8.17188 24.6309 8.28906 24.6309 8.41797C24.6309 8.51562 24.6504 8.60352 24.6895 8.68164C24.7324 8.75586 24.8008 8.82422 24.8945 8.88672C24.9883 8.94922 25.1094 9.00781 25.2578 9.0625C25.4102 9.11328 25.5977 9.16016 25.8203 9.20312C26.2773 9.29688 26.6855 9.41992 27.0449 9.57227C27.4043 9.7207 27.6895 9.92383 27.9004 10.1816C28.1113 10.4355 28.2168 10.7695 28.2168 11.1836C28.2168 11.4648 28.1543 11.7227 28.0293 11.957C27.9043 12.1914 27.7246 12.3965 27.4902 12.5723C27.2559 12.7441 26.9746 12.8789 26.6465 12.9766C26.3223 13.0703 25.957 13.1172 25.5508 13.1172C24.9609 13.1172 24.4609 13.0117 24.0508 12.8008C23.6445 12.5898 23.3359 12.3223 23.125 11.998C22.918 11.6699 22.8145 11.334 22.8145 10.9902H24.4141C24.4219 11.2207 24.4805 11.4062 24.5898 11.5469C24.7031 11.6875 24.8457 11.7891 25.0176 11.8516C25.1934 11.9141 25.3828 11.9453 25.5859 11.9453C25.8047 11.9453 25.9863 11.916 26.1309 11.8574C26.2754 11.7949 26.3848 11.7129 26.459 11.6113C26.5371 11.5059 26.5762 11.3848 26.5762 11.248ZM31.9316 11.7988C32.1387 11.7988 32.3223 11.7598 32.4824 11.6816C32.6426 11.5996 32.7676 11.4863 32.8574 11.3418C32.9512 11.1934 33 11.0195 33.0039 10.8203H34.5918C34.5879 11.2656 34.4688 11.6621 34.2344 12.0098C34 12.3535 33.6855 12.625 33.291 12.8242C32.8965 13.0195 32.4551 13.1172 31.9668 13.1172C31.4746 13.1172 31.0449 13.0352 30.6777 12.8711C30.3145 12.707 30.0117 12.4805 29.7695 12.1914C29.5273 11.8984 29.3457 11.5586 29.2246 11.1719C29.1035 10.7812 29.043 10.3633 29.043 9.91797V9.74805C29.043 9.29883 29.1035 8.88086 29.2246 8.49414C29.3457 8.10352 29.5273 7.76367 29.7695 7.47461C30.0117 7.18164 30.3145 6.95312 30.6777 6.78906C31.041 6.625 31.4668 6.54297 31.9551 6.54297C32.4746 6.54297 32.9297 6.64258 33.3203 6.8418C33.7148 7.04102 34.0234 7.32617 34.2461 7.69727C34.4727 8.06445 34.5879 8.5 34.5918 9.00391H33.0039C33 8.79297 32.9551 8.60156 32.8691 8.42969C32.7871 8.25781 32.666 8.12109 32.5059 8.01953C32.3496 7.91406 32.1562 7.86133 31.9258 7.86133C31.6797 7.86133 31.4785 7.91406 31.3223 8.01953C31.166 8.12109 31.0449 8.26172 30.959 8.44141C30.873 8.61719 30.8125 8.81836 30.7773 9.04492C30.7461 9.26758 30.7305 9.50195 30.7305 9.74805V9.91797C30.7305 10.1641 30.7461 10.4004 30.7773 10.627C30.8086 10.8535 30.8672 11.0547 30.9531 11.2305C31.043 11.4062 31.166 11.5449 31.3223 11.6465C31.4785 11.748 31.6816 11.7988 31.9316 11.7988ZM37.2578 8.04297V13H35.5703V6.66016H37.1582L37.2578 8.04297ZM39.168 6.61914L39.1387 8.18359C39.0566 8.17188 38.957 8.16211 38.8398 8.1543C38.7266 8.14258 38.623 8.13672 38.5293 8.13672C38.291 8.13672 38.084 8.16797 37.9082 8.23047C37.7363 8.28906 37.5918 8.37695 37.4746 8.49414C37.3613 8.61133 37.2754 8.75391 37.2168 8.92188C37.1621 9.08984 37.1309 9.28125 37.123 9.49609L36.7832 9.39062C36.7832 8.98047 36.8242 8.60352 36.9062 8.25977C36.9883 7.91211 37.1074 7.60938 37.2637 7.35156C37.4238 7.09375 37.6191 6.89453 37.8496 6.75391C38.0801 6.61328 38.3438 6.54297 38.6406 6.54297C38.7344 6.54297 38.8301 6.55078 38.9277 6.56641C39.0254 6.57812 39.1055 6.5957 39.168 6.61914ZM41.7461 6.66016V13H40.0527V6.66016H41.7461ZM39.9473 5.00781C39.9473 4.76172 40.0332 4.55859 40.2051 4.39844C40.377 4.23828 40.6074 4.1582 40.8965 4.1582C41.1816 4.1582 41.4102 4.23828 41.582 4.39844C41.7578 4.55859 41.8457 4.76172 41.8457 5.00781C41.8457 5.25391 41.7578 5.45703 41.582 5.61719C41.4102 5.77734 41.1816 5.85742 40.8965 5.85742C40.6074 5.85742 40.377 5.77734 40.2051 5.61719C40.0332 5.45703 39.9473 5.25391 39.9473 5.00781ZM44.8281 7.87891V15.4375H43.1406V6.66016H44.7051L44.8281 7.87891ZM48.8418 9.75977V9.88281C48.8418 10.3438 48.7871 10.7715 48.6777 11.166C48.5723 11.5605 48.416 11.9043 48.209 12.1973C48.002 12.4863 47.7441 12.7129 47.4355 12.877C47.1309 13.0371 46.7793 13.1172 46.3809 13.1172C45.9941 13.1172 45.6582 13.0391 45.373 12.8828C45.0879 12.7266 44.8477 12.5078 44.6523 12.2266C44.4609 11.9414 44.3066 11.6113 44.1895 11.2363C44.0723 10.8613 43.9824 10.459 43.9199 10.0293V9.70703C43.9824 9.24609 44.0723 8.82422 44.1895 8.44141C44.3066 8.05469 44.4609 7.7207 44.6523 7.43945C44.8477 7.1543 45.0859 6.93359 45.3672 6.77734C45.6523 6.62109 45.9863 6.54297 46.3691 6.54297C46.7715 6.54297 47.125 6.61914 47.4297 6.77148C47.7383 6.92383 47.9961 7.14258 48.2031 7.42773C48.4141 7.71289 48.5723 8.05273 48.6777 8.44727C48.7871 8.8418 48.8418 9.2793 48.8418 9.75977ZM47.1484 9.88281V9.75977C47.1484 9.49023 47.125 9.24219 47.0781 9.01562C47.0352 8.78516 46.9648 8.58398 46.8672 8.41211C46.7734 8.24023 46.6484 8.10742 46.4922 8.01367C46.3398 7.91602 46.1543 7.86719 45.9355 7.86719C45.7051 7.86719 45.5078 7.9043 45.3438 7.97852C45.1836 8.05273 45.0527 8.16016 44.9512 8.30078C44.8496 8.44141 44.7734 8.60938 44.7227 8.80469C44.6719 9 44.6406 9.2207 44.6289 9.4668V10.2812C44.6484 10.5703 44.7031 10.8301 44.793 11.0605C44.8828 11.2871 45.0215 11.4668 45.209 11.5996C45.3965 11.7324 45.6426 11.7988 45.9473 11.7988C46.1699 11.7988 46.3574 11.75 46.5098 11.6523C46.6621 11.5508 46.7852 11.4121 46.8789 11.2363C46.9766 11.0605 47.0449 10.8574 47.084 10.627C47.127 10.3965 47.1484 10.1484 47.1484 9.88281ZM52.9961 6.66016V7.85547H49.3047V6.66016H52.9961ZM50.2188 5.0957H51.9062V11.0898C51.9062 11.2734 51.9297 11.4141 51.9766 11.5117C52.0273 11.6094 52.1016 11.6777 52.1992 11.7168C52.2969 11.752 52.4199 11.7695 52.5684 11.7695C52.6738 11.7695 52.7676 11.7656 52.8496 11.7578C52.9355 11.7461 53.0078 11.7344 53.0664 11.7227L53.0723 12.9648C52.9277 13.0117 52.7715 13.0488 52.6035 13.0762C52.4355 13.1035 52.25 13.1172 52.0469 13.1172C51.6758 13.1172 51.3516 13.0566 51.0742 12.9355C50.8008 12.8105 50.5898 12.6113 50.4414 12.3379C50.293 12.0645 50.2188 11.7051 50.2188 11.2598V5.0957ZM55.7383 6.66016V13H54.0449V6.66016H55.7383ZM53.9395 5.00781C53.9395 4.76172 54.0254 4.55859 54.1973 4.39844C54.3691 4.23828 54.5996 4.1582 54.8887 4.1582C55.1738 4.1582 55.4023 4.23828 55.5742 4.39844C55.75 4.55859 55.8379 4.76172 55.8379 5.00781C55.8379 5.25391 55.75 5.45703 55.5742 5.61719C55.4023 5.77734 55.1738 5.85742 54.8887 5.85742C54.5996 5.85742 54.3691 5.77734 54.1973 5.61719C54.0254 5.45703 53.9395 5.25391 53.9395 5.00781ZM56.8633 9.89453V9.77148C56.8633 9.30664 56.9297 8.87891 57.0625 8.48828C57.1953 8.09375 57.3887 7.75195 57.6426 7.46289C57.8965 7.17383 58.209 6.94922 58.5801 6.78906C58.9512 6.625 59.377 6.54297 59.8574 6.54297C60.3379 6.54297 60.7656 6.625 61.1406 6.78906C61.5156 6.94922 61.8301 7.17383 62.084 7.46289C62.3418 7.75195 62.5371 8.09375 62.6699 8.48828C62.8027 8.87891 62.8691 9.30664 62.8691 9.77148V9.89453C62.8691 10.3555 62.8027 10.7832 62.6699 11.1777C62.5371 11.5684 62.3418 11.9102 62.084 12.2031C61.8301 12.4922 61.5176 12.7168 61.1465 12.877C60.7754 13.0371 60.3496 13.1172 59.8691 13.1172C59.3887 13.1172 58.9609 13.0371 58.5859 12.877C58.2148 12.7168 57.9004 12.4922 57.6426 12.2031C57.3887 11.9102 57.1953 11.5684 57.0625 11.1777C56.9297 10.7832 56.8633 10.3555 56.8633 9.89453ZM58.5508 9.77148V9.89453C58.5508 10.1602 58.5742 10.4082 58.6211 10.6387C58.668 10.8691 58.7422 11.0723 58.8438 11.248C58.9492 11.4199 59.0859 11.5547 59.2539 11.6523C59.4219 11.75 59.627 11.7988 59.8691 11.7988C60.1035 11.7988 60.3047 11.75 60.4727 11.6523C60.6406 11.5547 60.7754 11.4199 60.877 11.248C60.9785 11.0723 61.0527 10.8691 61.0996 10.6387C61.1504 10.4082 61.1758 10.1602 61.1758 9.89453V9.77148C61.1758 9.51367 61.1504 9.27148 61.0996 9.04492C61.0527 8.81445 60.9766 8.61133 60.8711 8.43555C60.7695 8.25586 60.6348 8.11523 60.4668 8.01367C60.2988 7.91211 60.0957 7.86133 59.8574 7.86133C59.6191 7.86133 59.416 7.91211 59.248 8.01367C59.084 8.11523 58.9492 8.25586 58.8438 8.43555C58.7422 8.61133 58.668 8.81445 58.6211 9.04492C58.5742 9.27148 58.5508 9.51367 58.5508 9.77148ZM65.5586 8.01367V13H63.8711V6.66016H65.4531L65.5586 8.01367ZM65.3125 9.60742H64.8555C64.8555 9.13867 64.916 8.7168 65.0371 8.3418C65.1582 7.96289 65.3281 7.64062 65.5469 7.375C65.7656 7.10547 66.0254 6.90039 66.3262 6.75977C66.6309 6.61523 66.9707 6.54297 67.3457 6.54297C67.6426 6.54297 67.9141 6.58594 68.1602 6.67188C68.4062 6.75781 68.6172 6.89453 68.793 7.08203C68.9727 7.26953 69.1094 7.51758 69.2031 7.82617C69.3008 8.13477 69.3496 8.51172 69.3496 8.95703V13H67.6504V8.95117C67.6504 8.66992 67.6113 8.45117 67.5332 8.29492C67.4551 8.13867 67.3398 8.0293 67.1875 7.9668C67.0391 7.90039 66.8555 7.86719 66.6367 7.86719C66.4102 7.86719 66.2129 7.91211 66.0449 8.00195C65.8809 8.0918 65.7441 8.2168 65.6348 8.37695C65.5293 8.5332 65.4492 8.7168 65.3945 8.92773C65.3398 9.13867 65.3125 9.36523 65.3125 9.60742ZM74.0605 11.248C74.0605 11.127 74.0254 11.0176 73.9551 10.9199C73.8848 10.8223 73.7539 10.7324 73.5625 10.6504C73.375 10.5645 73.1035 10.4863 72.748 10.416C72.4277 10.3457 72.1289 10.2578 71.8516 10.1523C71.5781 10.043 71.3398 9.91211 71.1367 9.75977C70.9375 9.60742 70.7812 9.42773 70.668 9.2207C70.5547 9.00977 70.498 8.76953 70.498 8.5C70.498 8.23438 70.5547 7.98438 70.668 7.75C70.7852 7.51562 70.9512 7.30859 71.166 7.12891C71.3848 6.94531 71.6504 6.80273 71.9629 6.70117C72.2793 6.5957 72.6348 6.54297 73.0293 6.54297C73.5801 6.54297 74.0527 6.63086 74.4473 6.80664C74.8457 6.98242 75.1504 7.22461 75.3613 7.5332C75.5762 7.83789 75.6836 8.18555 75.6836 8.57617H73.9961C73.9961 8.41211 73.9609 8.26562 73.8906 8.13672C73.8242 8.00391 73.7188 7.90039 73.5742 7.82617C73.4336 7.74805 73.25 7.70898 73.0234 7.70898C72.8359 7.70898 72.6738 7.74219 72.5371 7.80859C72.4004 7.87109 72.2949 7.95703 72.2207 8.06641C72.1504 8.17188 72.1152 8.28906 72.1152 8.41797C72.1152 8.51562 72.1348 8.60352 72.1738 8.68164C72.2168 8.75586 72.2852 8.82422 72.3789 8.88672C72.4727 8.94922 72.5938 9.00781 72.7422 9.0625C72.8945 9.11328 73.082 9.16016 73.3047 9.20312C73.7617 9.29688 74.1699 9.41992 74.5293 9.57227C74.8887 9.7207 75.1738 9.92383 75.3848 10.1816C75.5957 10.4355 75.7012 10.7695 75.7012 11.1836C75.7012 11.4648 75.6387 11.7227 75.5137 11.957C75.3887 12.1914 75.209 12.3965 74.9746 12.5723C74.7402 12.7441 74.459 12.8789 74.1309 12.9766C73.8066 13.0703 73.4414 13.1172 73.0352 13.1172C72.4453 13.1172 71.9453 13.0117 71.5352 12.8008C71.1289 12.5898 70.8203 12.3223 70.6094 11.998C70.4023 11.6699 70.2988 11.334 70.2988 10.9902H71.8984C71.9062 11.2207 71.9648 11.4062 72.0742 11.5469C72.1875 11.6875 72.3301 11.7891 72.502 11.8516C72.6777 11.9141 72.8672 11.9453 73.0703 11.9453C73.2891 11.9453 73.4707 11.916 73.6152 11.8574C73.7598 11.7949 73.8691 11.7129 73.9434 11.6113C74.0215 11.5059 74.0605 11.3848 74.0605 11.248Z" fill="white"/>
</svg>
