<svg width="75" height="19" viewBox="0 0 75 19" fill="none" xmlns="http://www.w3.org/2000/svg">
<rect x="0.5" y="0.5" width="73" height="17" fill="white" stroke="#9C3030"/>
<path d="M8.89258 11.2188L10.9023 4.46875H12.8594L9.88867 13H8.59961L8.89258 11.2188ZM7.04102 4.46875L9.04492 11.2188L9.34961 13H8.04883L5.0957 4.46875H7.04102ZM15.332 6.66016V13H13.6387V6.66016H15.332ZM13.5332 5.00781C13.5332 4.76172 13.6191 4.55859 13.791 4.39844C13.9629 4.23828 14.1934 4.1582 14.4824 4.1582C14.7676 4.1582 14.9961 4.23828 15.168 4.39844C15.3438 4.55859 15.4316 4.76172 15.4316 5.00781C15.4316 5.25391 15.3438 5.45703 15.168 5.61719C14.9961 5.77734 14.7676 5.85742 14.4824 5.85742C14.1934 5.85742 13.9629 5.77734 13.791 5.61719C13.6191 5.45703 13.5332 5.25391 13.5332 5.00781ZM19.832 6.66016V7.85547H16.1406V6.66016H19.832ZM17.0547 5.0957H18.7422V11.0898C18.7422 11.2734 18.7656 11.4141 18.8125 11.5117C18.8633 11.6094 18.9375 11.6777 19.0352 11.7168C19.1328 11.752 19.2559 11.7695 19.4043 11.7695C19.5098 11.7695 19.6035 11.7656 19.6855 11.7578C19.7715 11.7461 19.8438 11.7344 19.9023 11.7227L19.9082 12.9648C19.7637 13.0117 19.6074 13.0488 19.4395 13.0762C19.2715 13.1035 19.0859 13.1172 18.8828 13.1172C18.5117 13.1172 18.1875 13.0566 17.9102 12.9355C17.6367 12.8105 17.4258 12.6113 17.2773 12.3379C17.1289 12.0645 17.0547 11.7051 17.0547 11.2598V5.0957ZM24.2148 11.5703V8.74609C24.2148 8.54297 24.1816 8.36914 24.1152 8.22461C24.0488 8.07617 23.9453 7.96094 23.8047 7.87891C23.668 7.79688 23.4902 7.75586 23.2715 7.75586C23.084 7.75586 22.9219 7.78906 22.7852 7.85547C22.6484 7.91797 22.543 8.00977 22.4688 8.13086C22.3945 8.24805 22.3574 8.38672 22.3574 8.54688H20.6699C20.6699 8.27734 20.7324 8.02148 20.8574 7.7793C20.9824 7.53711 21.1641 7.32422 21.4023 7.14062C21.6406 6.95312 21.9238 6.80664 22.252 6.70117C22.584 6.5957 22.9551 6.54297 23.3652 6.54297C23.8574 6.54297 24.2949 6.625 24.6777 6.78906C25.0605 6.95312 25.3613 7.19922 25.5801 7.52734C25.8027 7.85547 25.9141 8.26562 25.9141 8.75781V11.4707C25.9141 11.8184 25.9355 12.1035 25.9785 12.3262C26.0215 12.5449 26.084 12.7363 26.166 12.9004V13H24.4609C24.3789 12.8281 24.3164 12.6133 24.2734 12.3555C24.2344 12.0938 24.2148 11.832 24.2148 11.5703ZM24.4375 9.13867L24.4492 10.0938H23.5059C23.2832 10.0938 23.0898 10.1191 22.9258 10.1699C22.7617 10.2207 22.627 10.293 22.5215 10.3867C22.416 10.4766 22.3379 10.582 22.2871 10.7031C22.2402 10.8242 22.2168 10.957 22.2168 11.1016C22.2168 11.2461 22.25 11.377 22.3164 11.4941C22.3828 11.6074 22.4785 11.6973 22.6035 11.7637C22.7285 11.8262 22.875 11.8574 23.043 11.8574C23.2969 11.8574 23.5176 11.8066 23.7051 11.7051C23.8926 11.6035 24.0371 11.4785 24.1387 11.3301C24.2441 11.1816 24.2988 11.041 24.3027 10.9082L24.748 11.623C24.6855 11.7832 24.5996 11.9492 24.4902 12.1211C24.3848 12.293 24.25 12.4551 24.0859 12.6074C23.9219 12.7559 23.7246 12.8789 23.4941 12.9766C23.2637 13.0703 22.9902 13.1172 22.6738 13.1172C22.2715 13.1172 21.9062 13.0371 21.5781 12.877C21.2539 12.7129 20.9961 12.4883 20.8047 12.2031C20.6172 11.9141 20.5234 11.5859 20.5234 11.2188C20.5234 10.8867 20.5859 10.5918 20.7109 10.334C20.8359 10.0762 21.0195 9.85938 21.2617 9.68359C21.5078 9.50391 21.8145 9.36914 22.1816 9.2793C22.5488 9.18555 22.9746 9.13867 23.459 9.13867H24.4375ZM28.9961 4V13H27.3027V4H28.9961ZM37.9258 10.7676C37.9258 10.6152 37.9023 10.4785 37.8555 10.3574C37.8125 10.2324 37.7305 10.1191 37.6094 10.0176C37.4883 9.91211 37.3184 9.80859 37.0996 9.70703C36.8809 9.60547 36.5977 9.5 36.25 9.39062C35.8633 9.26562 35.4961 9.125 35.1484 8.96875C34.8047 8.8125 34.5 8.63086 34.2344 8.42383C33.9727 8.21289 33.7656 7.96875 33.6133 7.69141C33.4648 7.41406 33.3906 7.0918 33.3906 6.72461C33.3906 6.36914 33.4688 6.04688 33.625 5.75781C33.7812 5.46484 34 5.21484 34.2812 5.00781C34.5625 4.79688 34.8945 4.63477 35.2773 4.52148C35.6641 4.4082 36.0879 4.35156 36.5488 4.35156C37.1777 4.35156 37.7266 4.46484 38.1953 4.69141C38.6641 4.91797 39.0273 5.22852 39.2852 5.62305C39.5469 6.01758 39.6777 6.46875 39.6777 6.97656H37.9316C37.9316 6.72656 37.8789 6.50781 37.7734 6.32031C37.6719 6.12891 37.5156 5.97852 37.3047 5.86914C37.0977 5.75977 36.8359 5.70508 36.5195 5.70508C36.2148 5.70508 35.9609 5.75195 35.7578 5.8457C35.5547 5.93555 35.4023 6.05859 35.3008 6.21484C35.1992 6.36719 35.1484 6.53906 35.1484 6.73047C35.1484 6.875 35.1836 7.00586 35.2539 7.12305C35.3281 7.24023 35.4375 7.34961 35.582 7.45117C35.7266 7.55273 35.9043 7.64844 36.1152 7.73828C36.3262 7.82812 36.5703 7.91602 36.8477 8.00195C37.3125 8.14258 37.7207 8.30078 38.0723 8.47656C38.4277 8.65234 38.7246 8.84961 38.9629 9.06836C39.2012 9.28711 39.3809 9.53516 39.502 9.8125C39.623 10.0898 39.6836 10.4043 39.6836 10.7559C39.6836 11.127 39.6113 11.459 39.4668 11.752C39.3223 12.0449 39.1133 12.293 38.8398 12.4961C38.5664 12.6992 38.2402 12.8535 37.8613 12.959C37.4824 13.0645 37.0586 13.1172 36.5898 13.1172C36.168 13.1172 35.752 13.0625 35.3418 12.9531C34.9316 12.8398 34.5586 12.6699 34.2227 12.4434C33.8906 12.2168 33.625 11.9277 33.4258 11.5762C33.2266 11.2246 33.127 10.8086 33.127 10.3281H34.8906C34.8906 10.5938 34.9316 10.8184 35.0137 11.002C35.0957 11.1855 35.2109 11.334 35.3594 11.4473C35.5117 11.5605 35.6914 11.6426 35.8984 11.6934C36.1094 11.7441 36.3398 11.7695 36.5898 11.7695C36.8945 11.7695 37.1445 11.7266 37.3398 11.6406C37.5391 11.5547 37.6855 11.4355 37.7793 11.2832C37.877 11.1309 37.9258 10.959 37.9258 10.7676ZM42.5547 6.66016V13H40.8613V6.66016H42.5547ZM40.7559 5.00781C40.7559 4.76172 40.8418 4.55859 41.0137 4.39844C41.1855 4.23828 41.416 4.1582 41.7051 4.1582C41.9902 4.1582 42.2188 4.23828 42.3906 4.39844C42.5664 4.55859 42.6543 4.76172 42.6543 5.00781C42.6543 5.25391 42.5664 5.45703 42.3906 5.61719C42.2188 5.77734 41.9902 5.85742 41.7051 5.85742C41.416 5.85742 41.1855 5.77734 41.0137 5.61719C40.8418 5.45703 40.7559 5.25391 40.7559 5.00781ZM47.9629 6.66016H49.4922V12.7891C49.4922 13.3672 49.3633 13.8574 49.1055 14.2598C48.8516 14.666 48.4961 14.9727 48.0391 15.1797C47.582 15.3906 47.0508 15.4961 46.4453 15.4961C46.1797 15.4961 45.8984 15.4609 45.6016 15.3906C45.3086 15.3203 45.0273 15.2109 44.7578 15.0625C44.4922 14.9141 44.2695 14.7266 44.0898 14.5L44.834 13.5039C45.0293 13.7305 45.2559 13.9062 45.5137 14.0312C45.7715 14.1602 46.0566 14.2246 46.3691 14.2246C46.6738 14.2246 46.9316 14.168 47.1426 14.0547C47.3535 13.9453 47.5156 13.7832 47.6289 13.5684C47.7422 13.3574 47.7988 13.1016 47.7988 12.8008V8.125L47.9629 6.66016ZM43.6973 9.90625V9.7832C43.6973 9.29883 43.7559 8.85938 43.873 8.46484C43.9941 8.06641 44.1641 7.72461 44.3828 7.43945C44.6055 7.1543 44.875 6.93359 45.1914 6.77734C45.5078 6.62109 45.8652 6.54297 46.2637 6.54297C46.6855 6.54297 47.0391 6.62109 47.3242 6.77734C47.6094 6.93359 47.8438 7.15625 48.0273 7.44531C48.2109 7.73047 48.3535 8.06836 48.4551 8.45898C48.5605 8.8457 48.6426 9.26953 48.7012 9.73047V10C48.6426 10.4414 48.5547 10.8516 48.4375 11.2305C48.3203 11.6094 48.166 11.9414 47.9746 12.2266C47.7832 12.5078 47.5449 12.7266 47.2598 12.8828C46.9785 13.0391 46.6426 13.1172 46.252 13.1172C45.8613 13.1172 45.5078 13.0371 45.1914 12.877C44.8789 12.7168 44.6113 12.4922 44.3887 12.2031C44.166 11.9141 43.9941 11.5742 43.873 11.1836C43.7559 10.793 43.6973 10.3672 43.6973 9.90625ZM45.3848 9.7832V9.90625C45.3848 10.168 45.4102 10.4121 45.4609 10.6387C45.5117 10.8652 45.5898 11.0664 45.6953 11.2422C45.8047 11.4141 45.9395 11.5488 46.0996 11.6465C46.2637 11.7402 46.457 11.7871 46.6797 11.7871C46.9883 11.7871 47.2402 11.7227 47.4355 11.5938C47.6309 11.4609 47.7773 11.2793 47.875 11.0488C47.9727 10.8184 48.0293 10.5527 48.0449 10.252V9.48438C48.0371 9.23828 48.0039 9.01758 47.9453 8.82227C47.8867 8.62305 47.8047 8.45312 47.6992 8.3125C47.5938 8.17188 47.457 8.0625 47.2891 7.98438C47.1211 7.90625 46.9219 7.86719 46.6914 7.86719C46.4688 7.86719 46.2754 7.91797 46.1113 8.01953C45.9512 8.11719 45.8164 8.25195 45.707 8.42383C45.6016 8.5957 45.5215 8.79883 45.4668 9.0332C45.4121 9.26367 45.3848 9.51367 45.3848 9.7832ZM52.457 8.01367V13H50.7695V6.66016H52.3516L52.457 8.01367ZM52.2109 9.60742H51.7539C51.7539 9.13867 51.8145 8.7168 51.9355 8.3418C52.0566 7.96289 52.2266 7.64062 52.4453 7.375C52.6641 7.10547 52.9238 6.90039 53.2246 6.75977C53.5293 6.61523 53.8691 6.54297 54.2441 6.54297C54.541 6.54297 54.8125 6.58594 55.0586 6.67188C55.3047 6.75781 55.5156 6.89453 55.6914 7.08203C55.8711 7.26953 56.0078 7.51758 56.1016 7.82617C56.1992 8.13477 56.248 8.51172 56.248 8.95703V13H54.5488V8.95117C54.5488 8.66992 54.5098 8.45117 54.4316 8.29492C54.3535 8.13867 54.2383 8.0293 54.0859 7.9668C53.9375 7.90039 53.7539 7.86719 53.5352 7.86719C53.3086 7.86719 53.1113 7.91211 52.9434 8.00195C52.7793 8.0918 52.6426 8.2168 52.5332 8.37695C52.4277 8.5332 52.3477 8.7168 52.293 8.92773C52.2383 9.13867 52.2109 9.36523 52.2109 9.60742ZM60.959 11.248C60.959 11.127 60.9238 11.0176 60.8535 10.9199C60.7832 10.8223 60.6523 10.7324 60.4609 10.6504C60.2734 10.5645 60.002 10.4863 59.6465 10.416C59.3262 10.3457 59.0273 10.2578 58.75 10.1523C58.4766 10.043 58.2383 9.91211 58.0352 9.75977C57.8359 9.60742 57.6797 9.42773 57.5664 9.2207C57.4531 9.00977 57.3965 8.76953 57.3965 8.5C57.3965 8.23438 57.4531 7.98438 57.5664 7.75C57.6836 7.51562 57.8496 7.30859 58.0645 7.12891C58.2832 6.94531 58.5488 6.80273 58.8613 6.70117C59.1777 6.5957 59.5332 6.54297 59.9277 6.54297C60.4785 6.54297 60.9512 6.63086 61.3457 6.80664C61.7441 6.98242 62.0488 7.22461 62.2598 7.5332C62.4746 7.83789 62.582 8.18555 62.582 8.57617H60.8945C60.8945 8.41211 60.8594 8.26562 60.7891 8.13672C60.7227 8.00391 60.6172 7.90039 60.4727 7.82617C60.332 7.74805 60.1484 7.70898 59.9219 7.70898C59.7344 7.70898 59.5723 7.74219 59.4355 7.80859C59.2988 7.87109 59.1934 7.95703 59.1191 8.06641C59.0488 8.17188 59.0137 8.28906 59.0137 8.41797C59.0137 8.51562 59.0332 8.60352 59.0723 8.68164C59.1152 8.75586 59.1836 8.82422 59.2773 8.88672C59.3711 8.94922 59.4922 9.00781 59.6406 9.0625C59.793 9.11328 59.9805 9.16016 60.2031 9.20312C60.6602 9.29688 61.0684 9.41992 61.4277 9.57227C61.7871 9.7207 62.0723 9.92383 62.2832 10.1816C62.4941 10.4355 62.5996 10.7695 62.5996 11.1836C62.5996 11.4648 62.5371 11.7227 62.4121 11.957C62.2871 12.1914 62.1074 12.3965 61.873 12.5723C61.6387 12.7441 61.3574 12.8789 61.0293 12.9766C60.7051 13.0703 60.3398 13.1172 59.9336 13.1172C59.3438 13.1172 58.8438 13.0117 58.4336 12.8008C58.0273 12.5898 57.7188 12.3223 57.5078 11.998C57.3008 11.6699 57.1973 11.334 57.1973 10.9902H58.7969C58.8047 11.2207 58.8633 11.4062 58.9727 11.5469C59.0859 11.6875 59.2285 11.7891 59.4004 11.8516C59.5762 11.9141 59.7656 11.9453 59.9688 11.9453C60.1875 11.9453 60.3691 11.916 60.5137 11.8574C60.6582 11.7949 60.7676 11.7129 60.8418 11.6113C60.9199 11.5059 60.959 11.3848 60.959 11.248Z" fill="#A22B2B"/>
</svg>
